<svg xmlns="http://www.w3.org/2000/svg" xmlns:xlink="http://www.w3.org/1999/xlink" viewBox="0 0 792 792"><defs><style>.cls-1{isolation:isolate;}.cls-2{fill:url(#linear-gradient);}.cls-3{mix-blend-mode:multiply;fill:url(#linear-gradient-2);}.cls-4{fill:none;}.cls-4,.cls-5{stroke:#e6e7e8;stroke-miterlimit:10;stroke-width:3px;}.cls-6{fill:#fff;opacity:0.57;}</style><linearGradient id="linear-gradient" x1="290.16" y1="308.11" x2="421.8" y2="448.15" gradientUnits="userSpaceOnUse"><stop offset="0" stop-color="#c9cacc"/><stop offset="1" stop-color="#7e8083"/></linearGradient><linearGradient id="linear-gradient-2" x1="290.16" y1="308.51" x2="421.8" y2="448.55" gradientUnits="userSpaceOnUse"><stop offset="0" stop-opacity="0"/><stop offset="1" stop-color="#231f20" stop-opacity="0.5"/></linearGradient></defs><title>Artboard 1</title><g class="cls-1"><g id="empty_base" data-name="empty base"><circle class="cls-2" cx="344.74" cy="366.17" r="107.99"/><circle class="cls-3" cx="344.74" cy="366.57" r="107.99"/><path class="cls-4" d="M336.26,404.89c23.71-10.21,39.08-19.18,68.19-36.15a225.45,225.45,0,0,0,26.91-18.07c6.16-4.94,12.94-11,12.94-11,.84-.75,1.66-1.49,2.46-2.23A105.7,105.7,0,1,0,260.67,430.1,471.91,471.91,0,0,0,336.26,404.89Z"/><path class="cls-4" d="M276.75,447.15a105.69,105.69,0,0,0,174.08-80.58c0-2.47-.09-4.91-.26-7.34-28.65,19.25-54.72,34.82-76.94,47.22C339.89,425.27,312.2,435.91,276.75,447.15Z"/><path class="cls-5" d="M537.62,282.25c-1.74-2.61-8.5.43-47.05,10a73.87,73.87,0,0,1-15,2.46c-17.52,1-33-5.95-43-11.18-35.41-24.41-81.92-52-141.26-21.41-56.19,29-63.16,69.85-65.43,120.35-2.23,14.11-6,23.52-9.88,29.39-6.77,10.31-12.21,17.53-32.35,36.5-16,15.11-24,22.73-22.45,26,3.13,6.56,37.09-3.48,49.38-7.18,15.22-4.59,32.08-9.17,44.66-13,43.37,20.88,94.28,45.51,148.14,13.25,53.67-32.15,56.48-77.79,62-118.33,13.67-9.5,26.53-17.22,42.39-31C536.34,292.21,539.24,284.68,537.62,282.25ZM345.14,260.89a105.73,105.73,0,0,1,101.62,76.54c-.8.74-1.62,1.48-2.46,2.23,0,0-6.78,6.07-12.94,11a225.45,225.45,0,0,1-26.91,18.07c-29.11,17-44.48,25.94-68.19,36.15a471.91,471.91,0,0,1-75.59,25.21,105.69,105.69,0,0,1,84.47-169.21ZM450.83,366.57a105.69,105.69,0,0,1-174.08,80.58c35.45-11.24,74.35-28.89,96.88-40.7s48.29-28,76.94-47.22C450.74,361.66,450.83,364.1,450.83,366.57Z"/><g id="Layer_3" data-name="Layer 3"><path class="cls-6" d="M305,286.51c-8.41-5.14-27.14,5.94-38.61,28.28-8.23,16-14.4,50.87-4.49,51,11.22.17,11.15-19.86,22-40.24C295.07,304.47,313,291.45,305,286.51Z"/></g></g></g></svg>