<svg id="kierth_wings" data-name="kierth wings" xmlns="http://www.w3.org/2000/svg" viewBox="0 0 792 792"><defs><style>.cls-1,.cls-2{fill:none;stroke-linecap:round;stroke-miterlimit:10;}.cls-1{stroke:#e6e7e8;stroke-width:11px;}.cls-2{stroke:#231f20;stroke-width:6px;}</style></defs><title>Artboard 1</title><path class="cls-1" d="M442.12,262.67c15.65,1.25,31.71,2.45,46.79-1.89,15.75-4.54,29.32-14.9,40.21-27.15s19.36-26.41,27.77-40.48c42.17,5.67,84.62,11,122.76,29.83a210.56,210.56,0,0,1,85.4,77.8C742,280.3,710.78,267.06,680.17,263c16,6.58,29.34,15.93,42.2,27.49a226.08,226.08,0,0,1-81.18-11,58.28,58.28,0,0,0,29.45,22.75,195.28,195.28,0,0,1-82.47-11.64c5.5,11.56,14.16,21.93,25.11,28.56-10.71,3.43-22.29.67-33.24-1.89s-22.76-4.84-33.16-.57c2.21,11.22,13,20.24,24.41,21.42-14.62,7.43-35.39,2.77-46.76-9.05,6.3,6,10,18.82,6.71,26.84-9.58-9.43-23.47-12.92-36-8.08"/><path class="cls-2" d="M442.12,262.67c15.65,1.25,31.71,2.45,46.79-1.89,15.75-4.54,29.32-14.9,40.21-27.15s19.36-26.41,27.77-40.48c42.17,5.67,84.62,11,122.76,29.83a210.56,210.56,0,0,1,85.4,77.8C742,280.3,710.78,267.06,680.17,263c16,6.58,29.34,15.93,42.2,27.49a226.08,226.08,0,0,1-81.18-11,58.28,58.28,0,0,0,29.45,22.75,195.28,195.28,0,0,1-82.47-11.64c5.5,11.56,14.16,21.93,25.11,28.56-10.71,3.43-22.29.67-33.24-1.89s-22.76-4.84-33.16-.57c2.21,11.22,13,20.24,24.41,21.42-14.62,7.43-33.92,4.17-45.3-7.64,6.3,6,8.58,17.41,5.25,25.43-9.58-9.43-23.47-12.92-36-8.08"/><path class="cls-1" d="M211.67,372.63c-9.61,12.41-19.53,25.1-32.9,33.33-14,8.59-30.75,11.65-47.14,11.45S99.06,413.94,83,410.69c-24.2,35-48.86,69.95-60.59,110.85a210.59,210.59,0,0,0,0,115.53c.41-30.87,11.6-62.83,29.24-88.17-5.91,16.26-8,32.42-8.08,49.71a225.84,225.84,0,0,0,46.52-67.43,58.28,58.28,0,0,1-3,37.09A195.25,195.25,0,0,0,134,499.46c4.84,11.85,6.67,25.24,4.21,37.8,9.75-5.61,15.5-16,21-25.86s11.74-20.08,21.9-24.89c6.81,9.18,6.19,23.26-.59,32.46,15.33-5.81,25.77-24.4,24.7-40.76.17,8.67,7.25,20.19,15.41,23.12-.52-13.43,6.25-26.05,18.27-32.06"/><path class="cls-2" d="M211.67,372.63c-9.61,12.41-19.53,25.1-32.9,33.33-14,8.59-30.75,11.65-47.14,11.45S99.06,413.94,83,410.69c-24.2,35-48.86,69.95-60.59,110.85a210.59,210.59,0,0,0,0,115.53c.41-30.87,11.6-62.83,29.24-88.17-5.91,16.26-8,32.42-8.08,49.71a225.84,225.84,0,0,0,46.52-67.43,58.28,58.28,0,0,1-3,37.09A195.25,195.25,0,0,0,134,499.46c4.84,11.85,6.67,25.24,4.21,37.8,9.75-5.61,15.5-16,21-25.86s11.74-20.08,21.9-24.89c6.81,9.18,6.19,23.26-.59,32.46,15.33-5.81,25.92-22.27,24.85-38.64.17,8.68,7.1,18.07,15.26,21-.52-13.43,6.25-26.05,18.27-32.06"/></svg>