<svg id="konara_tentacles" data-name="konara tentacles" xmlns="http://www.w3.org/2000/svg" viewBox="0 0 792 792"><defs><style>.cls-1{fill:#e6e7e8;}.cls-2{fill:#231f20;}</style></defs><title>Artboard 1</title><path class="cls-1" d="M368.82,241.91c-.38-.77-.66-1.57-1-2.4l-.42-1.27c-.13-.42-.18-.84-.27-1.27-.17-.86-.29-1.73-.41-2.63s-.07-1.74-.09-2.64a33.92,33.92,0,0,1,.45-5.25c.12-.88.34-1.68.52-2.53s.37-1.71.63-2.48c1.87-6.46,4.77-12.05,7.18-16.89.58-1.19,1.25-2.38,1.79-3.47.28-.56.59-1.1.89-1.63s.52-1,.81-1.54c.14-.26.28-.51.43-.76l.37-.72c.24-.48.53-.94.79-1.41l.69-1.35a12.11,12.11,0,0,0,.69-1.33,19.83,19.83,0,0,0,2-5.56,22.92,22.92,0,0,0,.27-6.78,53.89,53.89,0,0,0-1.32-7.47c-.61-2.57-1.36-5.19-2.23-7.92-1.66-5.46-3.59-11.25-4.9-17.41a64.39,64.39,0,0,1-1.26-9.51A42.74,42.74,0,0,1,375,128a34.56,34.56,0,0,1,3-9.14,24.94,24.94,0,0,1,5.79-7.43,1.16,1.16,0,0,1,1.64.13,1.15,1.15,0,0,1,.11,1.36l0,0a25.32,25.32,0,0,0-3.35,15.5,40.1,40.1,0,0,0,1.48,7.74,53.82,53.82,0,0,0,2.94,7.43c2.29,4.92,5.18,9.75,8.05,15,1.4,2.62,2.83,5.4,4.12,8.34a70.33,70.33,0,0,1,3.36,9.34,60.77,60.77,0,0,1,2.07,10.56,44,44,0,0,1,.21,5.78,46.43,46.43,0,0,1-.68,5.88,24.87,24.87,0,0,1-.66,2.83c-.27.91-.51,1.86-.83,2.74s-.66,1.71-1,2.55l-.55,1.26c-.2.39-.4.78-.61,1.16-.41.78-.83,1.55-1.27,2.3s-.91,1.41-1.38,2.1c-.94,1.42-1.93,2.62-2.94,3.87a125.79,125.79,0,0,1-12.18,12.17l-2.93,2.71c-.88.92-2,1.85-2.81,2.84a50.14,50.14,0,0,0-5.47,6.87l-.08.11a1.3,1.3,0,0,1-1.81.31A1.33,1.33,0,0,1,368.82,241.91Z"/><path class="cls-1" d="M402.29,246.82a28.17,28.17,0,0,1,0-8.55,38.36,38.36,0,0,1,2.47-8.43,50.83,50.83,0,0,1,4.21-7.7c.81-1.2,1.66-2.4,2.56-3.52s1.8-2.27,2.77-3.32a73,73,0,0,1,6-6c1-1,2.1-1.88,3.17-2.76l3.14-2.55c4.2-3.3,8.29-6.31,12.05-9.24a121.11,121.11,0,0,0,10.1-8.56,50.67,50.67,0,0,0,7.55-9.08,58.2,58.2,0,0,0,5.76-11.7,95.48,95.48,0,0,0,3.83-13.84c2-9.74,3.58-20.34,7.11-31a76.22,76.22,0,0,1,7.07-15.47,51.18,51.18,0,0,1,11.47-13.24,40.88,40.88,0,0,1,15.8-7.74,30.56,30.56,0,0,1,17.58.83,26.47,26.47,0,0,1,13.18,11,23.06,23.06,0,0,1,3,7.89,18.77,18.77,0,0,1-.33,8.31,1.16,1.16,0,0,1-1.42.8,1.15,1.15,0,0,1-.84-1.21v0a17.59,17.59,0,0,0-4.41-13,20.47,20.47,0,0,0-11.28-6.88,23,23,0,0,0-12.83,1.27,30.28,30.28,0,0,0-10.82,7.33,39.27,39.27,0,0,0-7.28,11,63.53,63.53,0,0,0-4.18,13.18c-2,9.21-2.51,19.16-3.66,29.72-.59,5.27-1.22,10.77-2.36,16.37a77.28,77.28,0,0,1-5.3,17,53.3,53.3,0,0,1-4.73,8.25,54.84,54.84,0,0,1-6.15,7.25,71.79,71.79,0,0,1-14.05,10.55c-4.78,2.81-9.51,5.09-14,7.3l-3.34,1.63c-1.06.55-2.15,1-3.19,1.59q-3.17,1.62-6.19,3.37a69.11,69.11,0,0,0-11.33,8,45.42,45.42,0,0,0-4.86,5.11,44.39,44.39,0,0,0-4.05,6.29l0,.06a1.2,1.2,0,0,1-1.63.5A1.24,1.24,0,0,1,402.29,246.82Z"/><path class="cls-1" d="M463.67,415.7a18.49,18.49,0,0,1,4.24-9.8,27.81,27.81,0,0,1,8.68-7,36.82,36.82,0,0,1,22-3.69A40.28,40.28,0,0,1,508.88,398a45.94,45.94,0,0,1,8.79,5c5.32,3.8,9.75,8,14.3,11.55a150.63,150.63,0,0,0,13.28,9.66,47.91,47.91,0,0,0,13.88,6.29,28,28,0,0,0,14.86-.3,22.73,22.73,0,0,0,7-3.36,19.09,19.09,0,0,0,5.43-5.89h0a1.16,1.16,0,0,1,2.14.84,21.49,21.49,0,0,1-4.16,8.53,28.5,28.5,0,0,1-7.36,6.42,33.87,33.87,0,0,1-9.1,3.89,37.74,37.74,0,0,1-10.07,1.31,51.29,51.29,0,0,1-9.91-1.15,66.83,66.83,0,0,1-9.37-2.81,133.81,133.81,0,0,1-16.74-8.06,120.24,120.24,0,0,0-15.22-7l-6.88-2.69-6.26-2.53a44.54,44.54,0,0,0-12.58-3.08,32.69,32.69,0,0,0-7.18.09,28,28,0,0,0-8.14,2.32l-.06,0a1.32,1.32,0,0,1-1.85-1.32Z"/><path class="cls-1" d="M491.17,352.55a24.44,24.44,0,0,1,13.62-10.38,28,28,0,0,1,9.33-1.32,28.62,28.62,0,0,1,9.69,2,31.68,31.68,0,0,1,8.72,5.06,33.1,33.1,0,0,1,6.94,7.71,31.2,31.2,0,0,1,2.53,4.75c.74,1.69,1.23,3.18,1.68,4.44.83,2.51,1.57,4.25,1.93,4.46.15.12.09-.16-.16-.47a3.32,3.32,0,0,0-1.07-.79c-.29-.15-.42-.13-.42-.16s.11,0,.2-.07.07,0,.09,0a3.32,3.32,0,0,0,.37-.19,8.1,8.1,0,0,0,1.08-.83,20.4,20.4,0,0,0,3-3.69,119.63,119.63,0,0,0,6.83-12.11c1.15-2.27,2.42-4.67,3.79-7.11a73.59,73.59,0,0,1,4.68-7.4,43.85,43.85,0,0,1,6.22-7,38,38,0,0,1,8-5.57,38.82,38.82,0,0,1,27.45-3.06,35,35,0,0,1,8.61,3.52,52.11,52.11,0,0,1,12.91,11c3.5,4,6.47,8.09,9.56,11.74a50.24,50.24,0,0,0,10.06,9.5,23.65,23.65,0,0,0,5.89,2.93,19.66,19.66,0,0,0,6.54.94,17,17,0,0,0,6.53-1.34,13.53,13.53,0,0,0,5.32-4.09l0,0a1.15,1.15,0,0,1,1.94,1.22,16,16,0,0,1-5.54,6.06,21.12,21.12,0,0,1-7.74,3,24.86,24.86,0,0,1-8.39.12,30.8,30.8,0,0,1-8-2.51,55.37,55.37,0,0,1-13.29-9.26c-3.91-3.5-7.42-7.1-11-10.17a39.86,39.86,0,0,0-10.84-7.16A22.78,22.78,0,0,0,597,334.78a23.81,23.81,0,0,0-10.44,3.73,20.88,20.88,0,0,0-4,3.45,26.6,26.6,0,0,0-3.26,4.6,65.66,65.66,0,0,0-5,12.27c-.78,2.34-1.55,4.77-2.45,7.32s-2,5.19-3.22,7.89a39.29,39.29,0,0,1-5.53,8.62,28.74,28.74,0,0,1-4.49,4.18,27.77,27.77,0,0,1-2.81,1.83,22.46,22.46,0,0,1-3.31,1.53,24,24,0,0,1-7.13,1.49,22.13,22.13,0,0,1-7.84-1,21.33,21.33,0,0,1-4-1.73,19.64,19.64,0,0,1-3.62-2.66,21.71,21.71,0,0,1-4.69-6.4,34.35,34.35,0,0,1-2.72-9.79,27.92,27.92,0,0,0-.93-4.88,18.5,18.5,0,0,0-5.39-8.07,23.94,23.94,0,0,0-2.08-1.61,22.1,22.1,0,0,0-2.36-1.3,20.15,20.15,0,0,0-5.64-1.66,24.68,24.68,0,0,0-6.5-.09,28.28,28.28,0,0,0-6.92,1.76l-.05,0a1.2,1.2,0,0,1-1.56-.68A1.23,1.23,0,0,1,491.17,352.55Z"/><path class="cls-1" d="M452.7,266.52a54,54,0,0,0,17.68-13.18,42,42,0,0,0,9-16c.37-1.37.69-2.64,1-4.23l1.05-5.2a69.76,69.76,0,0,1,3.76-12.94,40.37,40.37,0,0,1,4-7.33,30,30,0,0,1,6.29-6.61,28.61,28.61,0,0,1,7.91-4.4l2.06-.7c.69-.19,1.37-.34,2.05-.52a19.13,19.13,0,0,1,2-.4c.67-.1,1.35-.22,2-.28a47,47,0,0,1,14.6.9,83.27,83.27,0,0,1,12.64,3.84,60.86,60.86,0,0,1,12.15,6.14,33.78,33.78,0,0,1,5.63,4.81,27.51,27.51,0,0,1,4.38,6.19c2.2,4.37,3.12,8.42,4.35,11.85s2.67,6.19,5,8A14.58,14.58,0,0,0,589,234.58l0,0a1.16,1.16,0,0,1,1.86,1.35,17.45,17.45,0,0,1-10.42,7.86,20,20,0,0,1-13.84-1.11,19,19,0,0,1-5.9-4.58,33.64,33.64,0,0,1-3.94-5.69c-2.13-3.8-3.73-7.37-5.67-9.84a15.37,15.37,0,0,0-3.11-3.08,21.59,21.59,0,0,0-3.94-2.31,49.41,49.41,0,0,0-9.84-3.12,68.28,68.28,0,0,0-10.59-1.71,28.9,28.9,0,0,0-9.21.54,11.73,11.73,0,0,0-3.31,1.38,7.74,7.74,0,0,0-2.13,2,9,9,0,0,0-1.31,2.55,23.09,23.09,0,0,0-.95,3.52c-.58,2.76-1,6.26-1.81,10.29-.41,2-.88,4.17-1.57,6.47-.15.56-.37,1.17-.56,1.75a18.46,18.46,0,0,1-.65,1.78c-.51,1.2-1,2.41-1.56,3.57a44.7,44.7,0,0,1-20.89,20.49,40.45,40.45,0,0,1-13.53,3.74,30.72,30.72,0,0,1-13.39-1.58,1.24,1.24,0,0,1-.72-1.61,1.22,1.22,0,0,1,.62-.68Z"/><path class="cls-1" d="M553.07,288.67a56.37,56.37,0,0,1,15.09-2.36c5-.22,9.83-.11,14.31-.25,2.23-.07,4.39-.19,6.44-.38s4-.48,6-.94a70.35,70.35,0,0,0,11.41-3.28A109.27,109.27,0,0,0,617,276.54a92.43,92.43,0,0,0,10.19-6.14l1.25-.84c.41-.29.8-.61,1.2-.91.78-.63,1.63-1.19,2.37-1.87l2.3-2,2.17-2.13a52.94,52.94,0,0,0,7.42-9.8,64.71,64.71,0,0,0,5.25-11.46A70.1,70.1,0,0,0,652.38,229a78.45,78.45,0,0,0,0-26.17A48.4,48.4,0,0,0,649,190.38a23.52,23.52,0,0,0-3.12-5.11,18.23,18.23,0,0,0-4.35-3.85,14.22,14.22,0,0,0-5.38-2,12.35,12.35,0,0,0-2.85,0,9.4,9.4,0,0,0-2.72.73c-3.58,1.47-6.67,5.22-6.4,9.45v0a1.15,1.15,0,0,1-2.27.36,11.42,11.42,0,0,1-.27-4,12.53,12.53,0,0,1,1.15-3.93,14.14,14.14,0,0,1,2.27-3.42,15,15,0,0,1,3.15-2.74,14.49,14.49,0,0,1,3.93-1.8,18,18,0,0,1,4.24-.65,20.78,20.78,0,0,1,8.31,1.6,23.9,23.9,0,0,1,7.13,4.5,31.93,31.93,0,0,1,5.34,6.32,58,58,0,0,1,6.41,14.28,86.25,86.25,0,0,1-3.25,61.11,95.9,95.9,0,0,1-7.92,14.2,76.57,76.57,0,0,1-10.68,12.57,62.3,62.3,0,0,1-29.08,15.62A63.5,63.5,0,0,1,596,305a61.87,61.87,0,0,1-8.28-.92,65.63,65.63,0,0,1-7.73-2,135.32,135.32,0,0,1-13.75-5.48c-2.18-1-4.33-2-6.51-2.91s-4.4-1.87-6.71-2.77h0a1.21,1.21,0,0,1-.69-1.58A1.2,1.2,0,0,1,553.07,288.67Z"/><path class="cls-1" d="M551.92,187a20.15,20.15,0,0,1-4.41-10.7,24.55,24.55,0,0,1,1.17-10.6,26.14,26.14,0,0,1,1-2.44,20.74,20.74,0,0,1,1.35-2.26,20.21,20.21,0,0,1,1.68-2c.62-.63,1.28-1.22,1.95-1.79a97.21,97.21,0,0,1,8.77-5.77A45.63,45.63,0,0,1,582,144.66a45,45,0,0,1,9.47-.33l2.32.23,2.28.34,2.24.49c.74.2,1.47.4,2.19.62a1.2,1.2,0,0,1,.8,1.49,1.18,1.18,0,0,1-.74.78l-.07,0-2,.69-2,.76-1.91.8-1.85.87a50.39,50.39,0,0,0-6.8,4,47.12,47.12,0,0,0-5.79,4.77,44.77,44.77,0,0,0-4.78,5.23,22.44,22.44,0,0,0-3.08,6.22,13.93,13.93,0,0,1-.66,1.52,8.61,8.61,0,0,1-.79,1.39,8,8,0,0,1-1,1.27,10.71,10.71,0,0,1-1.15,1.19,58.75,58.75,0,0,1-5.86,4.71c-2.33,1.66-4.93,3.45-8.63,5.61l-.05,0A1.73,1.73,0,0,1,551.92,187Z"/><path class="cls-1" d="M591.27,379.31a7.31,7.31,0,0,1,.94-1.49,9.49,9.49,0,0,1,1.31-1.21,10.11,10.11,0,0,1,3.26-1.6,14.43,14.43,0,0,1,7.18-.1,24.43,24.43,0,0,1,10.72,6.36,15.22,15.22,0,0,1,4.21,6.13c.4,1.1.81,2.21,1.27,3.31a17.37,17.37,0,0,0,1.69,3,42,42,0,0,0,4.42,5.18,29.45,29.45,0,0,0,2.53,2.34,26.05,26.05,0,0,0,2.84,2.1,29,29,0,0,0,14.4,4.81h0a1.2,1.2,0,0,1,.59,2.21,25.55,25.55,0,0,1-4.1,2.11,31.28,31.28,0,0,1-4.54,1.35,32.57,32.57,0,0,1-9.73.52,37.71,37.71,0,0,1-9.79-2.26,45.42,45.42,0,0,1-4.61-2.08c-1.49-.79-2.92-1.67-4.33-2.58-2.76-1.88-5.75-3.62-8.41-5.75a19.36,19.36,0,0,1-3.46-3.61,14.5,14.5,0,0,1-2-3.78,12.59,12.59,0,0,1-.63-3,12.35,12.35,0,0,1,0-1.36c0-.4.12-.82.12-1.3a11,11,0,0,0-.45-3.27,8.2,8.2,0,0,0-.87-1.91,5.66,5.66,0,0,0-.75-1,7.9,7.9,0,0,0-1.07-1l-.29-.23A1.66,1.66,0,0,1,591.27,379.31Z"/><path class="cls-1" d="M322.68,235.14a16.89,16.89,0,0,0-1.77-2.2,13.47,13.47,0,0,0-1.77-1.49,26.17,26.17,0,0,0-3.23-1.87,45.75,45.75,0,0,1-5.51-3.1l-.62-.44c-.21-.16-.38-.3-.61-.51a15.09,15.09,0,0,1-1.3-1.34,21.48,21.48,0,0,1-2.4-3.66c-.74-1.43-1.51-3-2.26-4.68s-1.53-3.45-2.26-5.34a29.41,29.41,0,0,1-1.64-6,25.37,25.37,0,0,1-.16-6.13,29.11,29.11,0,0,1,3.26-10.46,38.41,38.41,0,0,1,5.73-7.92c1.07-1.14,2.15-2.21,3.25-3.25s2.22-2,3.38-3l0,0a1.2,1.2,0,0,1,1.69.17,1.19,1.19,0,0,1,.23,1.08l-1.17,4.28c-.4,1.4-.76,2.78-1.07,4.15a37.91,37.91,0,0,0-1,7.77,18.1,18.1,0,0,0,1,6.45A9.25,9.25,0,0,0,315.6,200a15.33,15.33,0,0,0,1.57,1.88c1.21,1.3,3.3,2.36,5.52,3.81a17.06,17.06,0,0,1,3.25,2.78,17.7,17.7,0,0,1,1.49,1.92c.22.32.49.75.73,1.15s.47.82.68,1.25a24.9,24.9,0,0,1,2,5.57,20.74,20.74,0,0,1,.49,3.09,19.65,19.65,0,0,1,0,3.26,16.6,16.6,0,0,1-1.75,6.53,11.24,11.24,0,0,1-2,2.78,16.38,16.38,0,0,1-1.28,1.11,10.62,10.62,0,0,1-1.51.83,1.68,1.68,0,0,1-2-.59Z"/><path class="cls-1" d="M443.44,449a18.42,18.42,0,0,1,3.12-4,19.45,19.45,0,0,1,3.49-2.59,19.89,19.89,0,0,1,1.82-.85,16.35,16.35,0,0,1,1.85-.66,19.71,19.71,0,0,1,3.7-.56,11.64,11.64,0,0,1,3.54.48,12.38,12.38,0,0,1,3.14,1.73c.95.79,1.86,1.62,2.74,2.44a33.48,33.48,0,0,0,2.63,2.37l2.56,2.29c.8.82,1.58,1.66,2.34,2.47s1.42,1.78,2.1,2.67l1.84,2.8q.82,1.47,1.59,2.91c.45,1,.91,2,1.31,3s.7,2.06,1,3.07.5,2.1.68,3.14a1.26,1.26,0,0,1-1,1.46,1.21,1.21,0,0,1-.8-.13l-.09,0c-.92-.48-1.77-1-2.63-1.44l-2.57-1.29c-.9-.36-1.73-.75-2.57-1.11l-2.54-.95-2.51-.81-2.47-.68-2.41-.59-2.38-.48a13.29,13.29,0,0,0-2.45-.1c-.86.09-1.69.2-2.48.27a5,5,0,0,1-2.21-.13,4.48,4.48,0,0,1-1.9-1,12.83,12.83,0,0,1-1.83-1.75,13,13,0,0,1-.94-1.08c-.33-.38-.65-.82-1-1.28-.67-.87-1.38-1.86-2.15-3.06s-1.59-2.4-2.53-4.16l0-.08A2.36,2.36,0,0,1,443.44,449Z"/><path class="cls-1" d="M228.87,305.63a50.58,50.58,0,0,0-8.79-.47c-1.3,0-2.71.18-4,.23l-4,.39a127,127,0,0,1-17.19,1.05,48.31,48.31,0,0,1-4.84-.37c-.83-.1-1.65-.21-2.49-.36s-1.71-.36-2.56-.57c-.43-.1-.85-.2-1.28-.32l-1.3-.42c-.88-.28-1.74-.61-2.6-.92s-1.74-.8-2.6-1.2a24.27,24.27,0,0,1-2.55-1.37,47.6,47.6,0,0,1-4.86-3.4,46.64,46.64,0,0,1-4.18-4,60.81,60.81,0,0,1-6.54-8.56,71.16,71.16,0,0,1-4.76-8.71c-1.34-2.91-2.48-5.82-3.51-8.61-2-5.64-3.74-11-5.9-16a54,54,0,0,0-3.62-7.12,39.93,39.93,0,0,0-4.81-6.24,25.36,25.36,0,0,0-13.83-7.77h0a1.16,1.16,0,0,1,0-2.29,25,25,0,0,1,9.41.58A35.4,35.4,0,0,1,141,233a42.56,42.56,0,0,1,7.63,6,65.51,65.51,0,0,1,6.28,7.24c3.75,5.07,6.8,10.35,9.78,15.22,1.47,2.46,2.94,4.76,4.46,6.92a53.52,53.52,0,0,0,4.71,5.94,23.18,23.18,0,0,0,5.25,4.29,19.75,19.75,0,0,0,5.5,2.19,11.64,11.64,0,0,0,1.44.37l1.47.38c.53.11,1.07.2,1.59.34l.78.21a8,8,0,0,1,.85.17c.57.12,1.13.26,1.69.41s1.21.26,1.81.42c1.17.32,2.51.61,3.79,1,5.22,1.4,11.32,2.94,17.4,5.83.75.31,1.53.77,2.28,1.17s1.49.79,2.23,1.29a32,32,0,0,1,4.23,3.15c.66.61,1.32,1.16,1.92,1.81s1.17,1.35,1.7,2.05c.26.35.54.67.77,1l.67,1.16c.4.79.82,1.53,1.14,2.33a1.3,1.3,0,0,1-.72,1.69,1.32,1.32,0,0,1-.62.09Z"/><path class="cls-1" d="M210.55,334.09a44.39,44.39,0,0,0-7.39-1.14,46.92,46.92,0,0,0-7,.25,69.56,69.56,0,0,0-13.53,3.15c-2.22.74-4.42,1.53-6.63,2.4-1.1.41-2.19.91-3.31,1.33l-3.43,1.42c-4.63,1.89-9.47,3.93-14.74,5.63a71,71,0,0,1-17.21,3.52,51.93,51.93,0,0,1-18.82-2.13,76.63,76.63,0,0,1-16.25-7.31c-5-2.86-9.48-6-13.82-9.09-8.66-6.14-16.45-12.34-24.67-17a63.47,63.47,0,0,0-12.64-5.61A39,39,0,0,0,38,307.67a30.33,30.33,0,0,0-12.66,3.24,23.06,23.06,0,0,0-9.46,8.76,20.48,20.48,0,0,0-2.33,13,17.61,17.61,0,0,0,6.78,11.9h0a1.16,1.16,0,0,1-1.19,2,18.89,18.89,0,0,1-6.44-5.26,23.17,23.17,0,0,1-3.91-7.5,26.49,26.49,0,0,1,.53-17.14,30.57,30.57,0,0,1,11-13.71,40.67,40.67,0,0,1,16.27-6.69,51.23,51.23,0,0,1,17.52.19,76.5,76.5,0,0,1,16.26,5c10.31,4.41,19.27,10.28,27.91,15.22a95.62,95.62,0,0,0,12.89,6.31,59.13,59.13,0,0,0,12.58,3.45,51.25,51.25,0,0,0,11.8.36,120.18,120.18,0,0,0,13.11-1.88c4.68-.88,9.65-1.94,14.9-2.9l4-.66c1.38-.21,2.77-.41,4.17-.54a77.34,77.34,0,0,1,8.52-.51c1.43,0,2.87,0,4.32.14s2.89.23,4.33.42a50.5,50.5,0,0,1,8.56,1.95,38.72,38.72,0,0,1,7.94,3.74,28.18,28.18,0,0,1,6.41,5.66,1.21,1.21,0,0,1-1.2,1.94Z"/><path class="cls-1" d="M297.24,492.38a28.49,28.49,0,0,0-7.14,4.55,33.1,33.1,0,0,0-4.82,5.33,44.49,44.49,0,0,0-6,11.46L277,520.07,274.44,527a118,118,0,0,0-4.85,16,136.39,136.39,0,0,1-5.06,17.88,68.87,68.87,0,0,1-4.12,8.87A51.05,51.05,0,0,1,254.7,578a37.69,37.69,0,0,1-7.65,6.68,34.26,34.26,0,0,1-9,4.23,28.5,28.5,0,0,1-9.68,1.25,21.6,21.6,0,0,1-9.15-2.54,1.16,1.16,0,0,1,.79-2.16h0a19.09,19.09,0,0,0,8-.16,23.05,23.05,0,0,0,7.15-3,28,28,0,0,0,10.07-10.92,47.72,47.72,0,0,0,4.5-14.56,153.13,153.13,0,0,0,1.58-16.35c.36-5.75.15-11.87.82-18.36a47.29,47.29,0,0,1,2.13-9.87,40.22,40.22,0,0,1,4.75-9.59,36.83,36.83,0,0,1,17.32-14,27.81,27.81,0,0,1,11-1.86,18.42,18.42,0,0,1,10.15,3.32,1.32,1.32,0,0,1-.24,2.26Z"/><path class="cls-1" d="M232.31,471.09a29,29,0,0,0-5.92,4,24.57,24.57,0,0,0-4.23,4.93,20.12,20.12,0,0,0-2.5,5.31,22.08,22.08,0,0,0-.59,2.64,23.35,23.35,0,0,0-.17,2.62,18.48,18.48,0,0,0,2.46,9.39,29,29,0,0,0,3,3.93,34.27,34.27,0,0,1,5.52,8.53,21.53,21.53,0,0,1,1.68,7.76,19.3,19.3,0,0,1-.41,4.46,21,21,0,0,1-1.34,4.13,22.12,22.12,0,0,1-4.46,6.53,23.53,23.53,0,0,1-5.84,4.34,21.69,21.69,0,0,1-3.34,1.47A27.94,27.94,0,0,1,213,542a28.66,28.66,0,0,1-6.11.58,38.38,38.38,0,0,1-10.12-1.57c-2.86-.85-5.52-1.82-8-2.82s-4.84-2.06-7.1-3a65.31,65.31,0,0,0-12.53-4.36,27.12,27.12,0,0,0-5.6-.62,20.72,20.72,0,0,0-5.21.69,23.57,23.57,0,0,0-9.72,5.34,22.72,22.72,0,0,0-6.33,9.37,39.69,39.69,0,0,0-1.83,12.86c-.07,4.72.3,9.73.33,15a55.46,55.46,0,0,1-1.89,16.08,30.66,30.66,0,0,1-3.46,7.7,25,25,0,0,1-5.65,6.2,21.3,21.3,0,0,1-7.39,3.8,16.17,16.17,0,0,1-8.2.13,1.15,1.15,0,0,1,.37-2.27h0a13.69,13.69,0,0,0,6.59-1.26,17.33,17.33,0,0,0,5.33-4,19.81,19.81,0,0,0,3.64-5.52A24.19,24.19,0,0,0,131.8,588a50.48,50.48,0,0,0-.44-13.83c-.69-4.74-1.77-9.65-2.45-14.94a52,52,0,0,1,.29-17,35.14,35.14,0,0,1,3.08-8.78,38.68,38.68,0,0,1,20.49-18.52,38.08,38.08,0,0,1,9.48-2.3,43.89,43.89,0,0,1,9.38,0,71.64,71.64,0,0,1,8.63,1.41c2.74.59,5.37,1.23,7.85,1.87a119.31,119.31,0,0,0,13.58,2.92,20.93,20.93,0,0,0,4.77.19,7.73,7.73,0,0,0,1.34-.26,2.72,2.72,0,0,0,.38-.15s0,0,.09-.06.15-.12.18-.09a2.89,2.89,0,0,0-.16.41,3.59,3.59,0,0,0-.12,1.33c.07.39.24.63.25.43.08-.41-.73-2.11-2.06-4.4-.65-1.17-1.43-2.52-2.21-4.2a30.79,30.79,0,0,1-1.88-5,33,33,0,0,1-1.17-10.3,31.43,31.43,0,0,1,2-9.88,28.43,28.43,0,0,1,5-8.56,27.74,27.74,0,0,1,7.17-6.1,24.44,24.44,0,0,1,16.8-3.32,1.21,1.21,0,0,1,.33,2.26Z"/><path class="cls-1" d="M194.81,384.55a30.58,30.58,0,0,1-7.69,11.07,40.69,40.69,0,0,1-11.77,7.65,44.78,44.78,0,0,1-29.19,2.05c-1.25-.34-2.47-.79-3.71-1.2a17.92,17.92,0,0,1-1.76-.7c-.56-.24-1.16-.48-1.68-.73-2.18-1-4.08-2.07-5.88-3.12-3.54-2.09-6.46-4.07-8.9-5.47a22.32,22.32,0,0,0-3.27-1.62,8.77,8.77,0,0,0-2.78-.71,7.71,7.71,0,0,0-2.9.26,11.76,11.76,0,0,0-3.23,1.56,29.25,29.25,0,0,0-6.52,6.54,68.58,68.58,0,0,0-5.74,9.07,49.23,49.23,0,0,0-4.19,9.43,21.11,21.11,0,0,0-.88,4.48,15.42,15.42,0,0,0,.24,4.37c.56,3.09,2.17,6.66,3.6,10.77a33.14,33.14,0,0,1,1.65,6.73,19,19,0,0,1-.48,7.45,20,20,0,0,1-8.34,11.09,17.46,17.46,0,0,1-12.79,2.59,1.16,1.16,0,0,1,.21-2.29h0a14.15,14.15,0,0,0,9.54-4.15A14,14,0,0,0,92.66,451c.16-2.92-.91-5.86-2.7-9s-4.17-6.57-6-11.11a27.32,27.32,0,0,1-1.74-7.38,33.84,33.84,0,0,1,.14-7.41,60.51,60.51,0,0,1,3.46-13.16,82.6,82.6,0,0,1,5.5-12,47.23,47.23,0,0,1,9-11.53c.48-.45,1-.88,1.54-1.31a17.41,17.41,0,0,1,1.65-1.25c.58-.4,1.15-.81,1.75-1.2l1.89-1.08a28.89,28.89,0,0,1,8.54-3,29.77,29.77,0,0,1,9.11-.32,39.93,39.93,0,0,1,8.15,1.85,70.16,70.16,0,0,1,12.19,5.77l4.58,2.66c1.4.81,2.58,1.41,3.84,2a41.89,41.89,0,0,0,18,3.91A53.74,53.74,0,0,0,193.14,383h0a1.24,1.24,0,0,1,1.64,1.59Z"/><path class="cls-1" d="M151.91,472.28c-.85,2.33-1.62,4.61-2.36,6.86s-1.44,4.53-2.15,6.81a131.91,131.91,0,0,1-5,13.92,65.36,65.36,0,0,1-3.64,7.1,62.84,62.84,0,0,1-4.8,6.81,64,64,0,0,1-12.16,11.49,62.24,62.24,0,0,1-31,11.41,76.33,76.33,0,0,1-16.49-.34,94.45,94.45,0,0,1-15.88-3.49,86.2,86.2,0,0,1-47.9-38.08A58.11,58.11,0,0,1,4.1,480.5a32.28,32.28,0,0,1-1.19-8.19A24.16,24.16,0,0,1,4.27,464a21,21,0,0,1,4.31-7.28A18.14,18.14,0,0,1,11.89,454a14.54,14.54,0,0,1,3.94-1.75,15.11,15.11,0,0,1,4.14-.55,14.3,14.3,0,0,1,4.07.58A12.45,12.45,0,0,1,27.75,454a11.64,11.64,0,0,1,2.84,2.89,1.16,1.16,0,0,1-.3,1.6,1.18,1.18,0,0,1-1.47-.14l0,0c-3-3-7.84-3.18-11.32-1.48a9.56,9.56,0,0,0-2.34,1.56,12.35,12.35,0,0,0-1.85,2.16,14.19,14.19,0,0,0-2,5.38,16.64,16.64,0,0,0-.24,2.91,17.46,17.46,0,0,0,.23,2.9A23.87,23.87,0,0,0,13,477.44a48.09,48.09,0,0,0,7,10.79,78.61,78.61,0,0,0,19.62,17.32,70.56,70.56,0,0,0,11.45,5.84,64.54,64.54,0,0,0,12.05,3.67,52.45,52.45,0,0,0,12.26.94l3-.21,3-.41c1-.1,2-.36,3-.53.49-.1,1-.18,1.48-.3l1.46-.38a94.05,94.05,0,0,0,11.35-3.55,109.2,109.2,0,0,0,10.79-4.78,69.46,69.46,0,0,0,10-6.36c1.64-1.16,3.08-2.53,4.66-3.85s3-2.94,4.55-4.57c3.08-3.26,6.2-6.94,9.68-10.54a56,56,0,0,1,11.77-9.73,1.21,1.21,0,0,1,1.75,1.47Z"/><path class="cls-1" d="M66.61,406.46c-4.07,1.34-7.14,2.1-9.93,2.75a61.16,61.16,0,0,1-7.41,1.26,11.43,11.43,0,0,1-1.64.07,8.56,8.56,0,0,1-1.6-.12,8.71,8.71,0,0,1-1.56-.34,12.59,12.59,0,0,1-1.58-.51,22.83,22.83,0,0,0-6.69-1.82,45.59,45.59,0,0,0-7.09.11A47.86,47.86,0,0,0,21.7,409a51.33,51.33,0,0,0-7.53,2.41l-1.88.81-1.87.9-1.87,1-1.86,1.06-.06,0A1.2,1.2,0,0,1,5,413.67c.31-.68.64-1.37,1-2.05l1.12-2,1.25-1.93,1.37-1.89a45,45,0,0,1,6.52-6.88,48.64,48.64,0,0,1,8-5.56,48.16,48.16,0,0,1,9.3-3.81,98.16,98.16,0,0,1,10.13-2.74c.87-.12,1.75-.22,2.64-.27a23.18,23.18,0,0,1,2.63.08,22.56,22.56,0,0,1,2.58.49c.85.24,1.68.53,2.5.85a24.58,24.58,0,0,1,8.71,6.16,20.15,20.15,0,0,1,5.09,10.39,1.73,1.73,0,0,1-1.17,1.93Z"/><path class="cls-1" d="M186.81,563.5a6.88,6.88,0,0,0,0,1.44,5.2,5.2,0,0,0,.22,1.2,7.73,7.73,0,0,0,.86,1.92,10.51,10.51,0,0,0,2.15,2.5,12.3,12.3,0,0,0,1,.78,10.78,10.78,0,0,1,1,.92,11.85,11.85,0,0,1,1.86,2.49,14,14,0,0,1,1.52,4,18.82,18.82,0,0,1,.41,5c-.17,3.4-.84,6.79-1.27,10.1-.25,1.67-.54,3.32-.94,4.95a47.36,47.36,0,0,1-1.5,4.83,37.31,37.31,0,0,1-4.8,8.83,32.64,32.64,0,0,1-6.84,6.94,30.15,30.15,0,0,1-4,2.5,24.64,24.64,0,0,1-4.3,1.67,1.2,1.2,0,0,1-1.27-1.9l0,0a29,29,0,0,0,5.95-14,26.12,26.12,0,0,0,.3-3.52,30.38,30.38,0,0,0-.06-3.44,42.4,42.4,0,0,0-.95-6.74,17,17,0,0,0-1.15-3.27c-.52-1.07-1.07-2.12-1.62-3.15a15.09,15.09,0,0,1-1.81-7.21A24.44,24.44,0,0,1,174,568.07a14.42,14.42,0,0,1,4.84-5.31,9.79,9.79,0,0,1,3.36-1.38,8.93,8.93,0,0,1,1.77-.18,7.28,7.28,0,0,1,1.74.29,1.64,1.64,0,0,1,1.13,1.64Z"/><path class="cls-1" d="M255,267a11.09,11.09,0,0,1-1.62.57,15,15,0,0,1-1.69.23,11.63,11.63,0,0,1-3.42-.33,16.61,16.61,0,0,1-6-3,19.4,19.4,0,0,1-2.4-2.19,20.53,20.53,0,0,1-2-2.42,25.67,25.67,0,0,1-2.83-5.2c-.17-.45-.35-.9-.48-1.35s-.29-.92-.38-1.31a19.8,19.8,0,0,1-.45-2.38,17.29,17.29,0,0,1,.08-4.28c.39-2.62,1-4.89.8-6.66a13.64,13.64,0,0,0-.37-2.42,9.05,9.05,0,0,0-1-2.41,18,18,0,0,0-4.15-5,37.28,37.28,0,0,0-6.51-4.37c-1.23-.68-2.51-1.32-3.82-2l-4-2a1.2,1.2,0,0,1,.33-2.27h0c1.48-.23,3-.39,4.47-.56s3-.23,4.58-.28a38.08,38.08,0,0,1,9.73,1,28.91,28.91,0,0,1,10,4.49,25.06,25.06,0,0,1,4.48,4.18,29.59,29.59,0,0,1,3.43,5.23c.93,1.8,1.73,3.55,2.49,5.23s1.43,3.29,2,4.8a20.58,20.58,0,0,1,1.14,4.22,12.12,12.12,0,0,1,.15,1.85,6.7,6.7,0,0,1,0,.81l-.07.75a46.35,46.35,0,0,1-1.33,6.18,25.19,25.19,0,0,0-.75,3.67,14.24,14.24,0,0,0-.06,2.3,17.77,17.77,0,0,0,.48,2.79l0,.21A1.68,1.68,0,0,1,255,267Z"/><path class="cls-1" d="M337.56,498.56c.7,1.86,1,3.27,1.44,4.65s.66,2.56.87,3.64c.12.55.24,1.08.3,1.57s.15,1,.19,1.43a13.07,13.07,0,0,1,.1,2.53,4.42,4.42,0,0,1-.49,2.12,5,5,0,0,1-1.36,1.73c-.58.55-1.21,1.1-1.85,1.68a12.63,12.63,0,0,0-1.55,1.9l-1.21,2.1-1.16,2.2-1.13,2.3-1.07,2.41-1,2.53c-.29.87-.55,1.75-.87,2.66l-.75,2.78c-.23,1-.42,1.91-.67,2.93l0,.09a1.27,1.27,0,0,1-1.53.92,1.24,1.24,0,0,1-.67-.44c-.67-.83-1.26-1.7-1.9-2.59s-1.08-1.85-1.62-2.81-.92-2-1.38-3-.75-2.06-1.13-3.12l-.87-3.24c-.22-1.09-.41-2.2-.61-3.33s-.21-2.24-.3-3.39V515.4a32.38,32.38,0,0,0,0-3.54c0-1.21,0-2.44,0-3.68a12.13,12.13,0,0,1,.79-3.49,11.41,11.41,0,0,1,2-3,19.72,19.72,0,0,1,2.88-2.4,17.7,17.7,0,0,1,1.72-.95,15.92,15.92,0,0,1,1.84-.79,19.52,19.52,0,0,1,4.25-.9,18.91,18.91,0,0,1,5.09.33,2.34,2.34,0,0,1,1.67,1.45Z"/><path class="cls-2" d="M369.22,241.92a22.52,22.52,0,0,1-.91-4.72c-.07-.81-.09-1.63-.11-2.46s.11-1.62.17-2.45a35.64,35.64,0,0,1,.86-4.83c.18-.81.45-1.55.69-2.32a22.78,22.78,0,0,1,.77-2.29,117.42,117.42,0,0,1,8.05-16.07c.67-1.19,1.38-2.39,2-3.54.31-.58.66-1.14,1-1.71s.59-1.12.89-1.67c.15-.28.3-.56.46-.83l.4-.81c.26-.55.55-1.08.83-1.62s.47-1.06.72-1.59a14.19,14.19,0,0,0,.68-1.58,23.46,23.46,0,0,0,1.73-6.63,29,29,0,0,0-.13-7.43,78.91,78.91,0,0,0-4.24-15.8c-1.84-5.43-3.95-11-5.44-17a61.34,61.34,0,0,1-1.56-9.15,42.19,42.19,0,0,1,.24-9.33,34,34,0,0,1,2.56-8.92,24.85,24.85,0,0,1,5.31-7.46.75.75,0,0,1,1.13,1h0a23.52,23.52,0,0,0-3.44,7.55,30.23,30.23,0,0,0-.86,8.14,39.91,39.91,0,0,0,1.12,8.08,55.41,55.41,0,0,0,2.64,7.79c2.1,5.14,4.83,10.14,7.51,15.43a90.91,90.91,0,0,1,6.8,17.28,55,55,0,0,1,1.66,9.91,42.2,42.2,0,0,1,0,5.28,43.42,43.42,0,0,1-.77,5.32,22.83,22.83,0,0,1-.66,2.56c-.27.83-.5,1.7-.81,2.5s-.64,1.58-1,2.36l-.52,1.16-.58,1.09c-.39.73-.78,1.46-1.19,2.17s-.84,1.36-1.29,2c-.87,1.36-1.81,2.56-2.74,3.8-3.78,4.83-7.72,8.86-11.31,13-.9,1-1.74,2.06-2.62,3.11s-1.71,2.12-2.4,3.26a44,44,0,0,0-4.14,7.45l-.05.1a.79.79,0,0,1-1,.37A.8.8,0,0,1,369.22,241.92Z"/><path class="cls-2" d="M402.69,246.88a29.79,29.79,0,0,1,.72-8.16,37.92,37.92,0,0,1,2.87-7.85,51.53,51.53,0,0,1,4.43-7.11,64.3,64.3,0,0,1,5.42-6.31,81.26,81.26,0,0,1,6.05-5.57c2.09-1.78,4.25-3.39,6.36-4.95s4.24-3,6.3-4.53,4.12-2.9,6.08-4.37a102.13,102.13,0,0,0,10.79-8.91,48.84,48.84,0,0,0,8.13-10.19,61.51,61.51,0,0,0,5.68-12.63A111.06,111.06,0,0,0,469.09,152c1.9-9.88,3.28-20.37,6.51-30.76a73.81,73.81,0,0,1,6.59-15.06,48.51,48.51,0,0,1,10.72-12.87,38.85,38.85,0,0,1,14.93-7.67,29.18,29.18,0,0,1,16.76.46,25.51,25.51,0,0,1,12.85,10.25,22.62,22.62,0,0,1,3.09,7.57,18.46,18.46,0,0,1-.11,8.07.75.75,0,0,1-.9.56.76.76,0,0,1-.57-.84,18,18,0,0,0-4.11-13.52,21.58,21.58,0,0,0-11.61-7.59,24.2,24.2,0,0,0-13.65.9,32.18,32.18,0,0,0-11.69,7.41,40.79,40.79,0,0,0-8,11.42A64.5,64.5,0,0,0,485.21,124c-2.29,9.45-3,19.52-4.26,29.93s-3,21.42-8,32a54.63,54.63,0,0,1-4.52,7.65,52.1,52.1,0,0,1-5.78,6.73,73.94,73.94,0,0,1-13.37,10.2c-2.31,1.4-4.61,2.73-6.88,4l-6.76,3.65c-2.25,1.19-4.4,2.39-6.5,3.59s-4.15,2.5-6.16,3.84a63.77,63.77,0,0,0-11,9.16,47.15,47.15,0,0,0-4.45,5.69,34.52,34.52,0,0,0-1.79,3.22c-.63,1.1-1,2.28-1.55,3.47l0,.06a.76.76,0,0,1-1.45-.27Z"/><path class="cls-2" d="M464,415.93a19.08,19.08,0,0,1,4.92-8.51,27.42,27.42,0,0,1,8.42-5.78,36.07,36.07,0,0,1,20.33-2.51,45.75,45.75,0,0,1,18.08,7.31c5.23,3.46,9.8,7.34,14.46,10.76a132.34,132.34,0,0,0,13.88,9.39,47.19,47.19,0,0,0,14.82,5.87,29.57,29.57,0,0,0,15.61-1.14,21.61,21.61,0,0,0,12.26-10.24.75.75,0,0,1,1-.33.76.76,0,0,1,.39.87,21.26,21.26,0,0,1-4.39,8.07,27.56,27.56,0,0,1-7.29,5.89,35.07,35.07,0,0,1-18.42,4.34,55.88,55.88,0,0,1-18.34-4.36,141.57,141.57,0,0,1-16.14-8.34,150.48,150.48,0,0,0-15.06-7.8,147.74,147.74,0,0,0-14.18-5.66,39.32,39.32,0,0,0-14.21-1.9,28.06,28.06,0,0,0-14.9,4.91h0a.79.79,0,0,1-1.11-.21A.82.82,0,0,1,464,415.93Z"/><path class="cls-2" d="M491.44,352.85A24.64,24.64,0,0,1,505,344a26.48,26.48,0,0,1,8.69-.81,26.76,26.76,0,0,1,8.78,2.13,30.33,30.33,0,0,1,13.87,11.95A35.82,35.82,0,0,1,540,365.7a22.13,22.13,0,0,0,2.07,5.38,1.91,1.91,0,0,0,.69.73,1.41,1.41,0,0,0,.43.11,4.36,4.36,0,0,0,1,0,5.85,5.85,0,0,0,1.4-.32c.23-.08.44-.19.65-.28a7.59,7.59,0,0,0,.79-.48,12.57,12.57,0,0,0,1.68-1.41,24.2,24.2,0,0,0,3.46-4.55,128.75,128.75,0,0,0,6.62-12.65c1.09-2.28,2.27-4.64,3.54-7a60.62,60.62,0,0,1,4.34-7.1,40.58,40.58,0,0,1,5.71-6.59,35.1,35.1,0,0,1,7.3-5.19,36.93,36.93,0,0,1,16.85-4.22,34.45,34.45,0,0,1,16.69,4.21,50.48,50.48,0,0,1,12.55,10.35c3.52,3.85,6.58,7.83,9.81,11.46a50.62,50.62,0,0,0,10.62,9.46,25.29,25.29,0,0,0,6.27,2.86,20.8,20.8,0,0,0,6.86.75,17.88,17.88,0,0,0,6.75-1.62,13.77,13.77,0,0,0,5.35-4.44h0a.75.75,0,0,1,1.27.79,15.76,15.76,0,0,1-5.5,5.71,20.43,20.43,0,0,1-7.53,2.73,24,24,0,0,1-8.07-.07,29,29,0,0,1-7.68-2.58,53.69,53.69,0,0,1-12.72-9.3c-3.77-3.53-7.18-7.21-10.75-10.44a42.51,42.51,0,0,0-11.19-7.86,25.17,25.17,0,0,0-12.38-2,26.56,26.56,0,0,0-11.8,3.81,24.33,24.33,0,0,0-4.66,3.83,29.61,29.61,0,0,0-3.77,5,70,70,0,0,0-5.63,12.66,144.08,144.08,0,0,1-5.87,14.67,38.15,38.15,0,0,1-5.1,7.76,25.5,25.5,0,0,1-3.9,3.6A22.62,22.62,0,0,1,553.8,385a18.43,18.43,0,0,1-2.75,1.27,19,19,0,0,1-12.33.46,16,16,0,0,1-6.09-3.49,17.81,17.81,0,0,1-3.85-5.21,35.54,35.54,0,0,1-2.58-8.86,25.24,25.24,0,0,0-1.5-5.63,21,21,0,0,0-7.18-8.88c-6.3-4.67-16.37-5.47-25.09-.71h0a.77.77,0,0,1-1-.31A.74.74,0,0,1,491.44,352.85Z"/><path class="cls-2" d="M452.71,266.92A49.54,49.54,0,0,0,472,255.65a41.86,41.86,0,0,0,11.05-16.81,49,49,0,0,0,1.32-4.73c.39-1.68.74-3.52,1.14-5.42a74.76,74.76,0,0,1,3.43-12.48,35.48,35.48,0,0,1,3.49-6.66,26.09,26.09,0,0,1,5.41-5.91,25.28,25.28,0,0,1,6.9-4,29.4,29.4,0,0,1,7.31-1.81,44.63,44.63,0,0,1,13.66.67A81.93,81.93,0,0,1,538,202a57.46,57.46,0,0,1,11.73,5.63,31.91,31.91,0,0,1,5.35,4.36,25.67,25.67,0,0,1,4.16,5.65c2.15,4,3.19,8,4.58,11.5s3.1,6.5,5.81,8.4a15.2,15.2,0,0,0,10.09,2.3,14.68,14.68,0,0,0,9.61-5h0a.75.75,0,0,1,1.22.87,17,17,0,0,1-10.25,7.26,19,19,0,0,1-13-1.36,17.86,17.86,0,0,1-5.37-4.37,31.46,31.46,0,0,1-3.62-5.51c-2-3.73-3.46-7.39-5.44-10.19-3.72-5.51-10.49-8.16-17.81-10a71.62,71.62,0,0,0-10.94-2.1,33,33,0,0,0-10.15.31,17,17,0,0,0-4.16,1.48,11.41,11.41,0,0,0-3.13,2.41A16.42,16.42,0,0,0,503,221c-.85,3.1-1.35,6.76-2.15,10.75-.4,2-.84,4.08-1.47,6.25-.14.53-.34,1.09-.51,1.64a17.17,17.17,0,0,1-.58,1.65c-.45,1.11-.86,2.24-1.38,3.31a43.75,43.75,0,0,1-18.82,19.71,40.91,40.91,0,0,1-12.51,4.33,35.45,35.45,0,0,1-6.48.5c-1.08-.07-2.14-.09-3.19-.2s-2.11-.34-3.13-.55a.77.77,0,0,1-.59-.92.74.74,0,0,1,.52-.57Z"/><path class="cls-2" d="M553.06,289.07a62.66,62.66,0,0,1,14.77-1c4.89.16,9.65.59,14.21.74,2.27.08,4.5.11,6.66,0s4.27-.26,6.38-.62l1.57-.21,1.57-.31a30.07,30.07,0,0,0,3.1-.68c1-.28,2-.49,3.06-.8l3-1a85,85,0,0,0,22.34-11.85,58.54,58.54,0,0,0,17-19.14A68.69,68.69,0,0,0,652,242.23a73,73,0,0,0,3-13,83.53,83.53,0,0,0,.84-13.44,80.73,80.73,0,0,0-1.5-13.48,49.11,49.11,0,0,0-3.93-12.74,24.37,24.37,0,0,0-3.5-5.32,18.51,18.51,0,0,0-4.84-4,15.2,15.2,0,0,0-5.89-2,13.3,13.3,0,0,0-3.09.07,10.81,10.81,0,0,0-2.93.91,11.36,11.36,0,0,0-2.65,1.72,10.82,10.82,0,0,0-2.13,2.4,9.29,9.29,0,0,0-1.6,6.15v0a.75.75,0,0,1-1.48.25,11.23,11.23,0,0,1,1-7.58,13.1,13.1,0,0,1,2.23-3.21,14.26,14.26,0,0,1,3-2.53,13.88,13.88,0,0,1,3.72-1.61,16.89,16.89,0,0,1,4-.53,19.48,19.48,0,0,1,7.8,1.68,22.72,22.72,0,0,1,6.65,4.38,30.34,30.34,0,0,1,4.95,6.11,55.59,55.59,0,0,1,5.89,14,89.66,89.66,0,0,1,2.93,14.67,92.27,92.27,0,0,1,.36,15.06,82.49,82.49,0,0,1-2.37,15,79,79,0,0,1-5.09,14.47,86,86,0,0,1-7.83,13.44,75.35,75.35,0,0,1-10.44,11.72,62.92,62.92,0,0,1-43.4,16.63,64.7,64.7,0,0,1-7.89-.6,70.06,70.06,0,0,1-7.5-1.58c-9.72-2.59-18.07-6.43-27.39-8.76a.78.78,0,0,1-.57-.93A.79.79,0,0,1,553.06,289.07Z"/><path class="cls-2" d="M552.31,187.07a20.26,20.26,0,0,1-2.13-9.82,27.33,27.33,0,0,1,2-9.58,21.24,21.24,0,0,1,5.58-8,76.64,76.64,0,0,1,7.77-5.85,46.44,46.44,0,0,1,17.13-7.32,44.23,44.23,0,0,1,17.82-.13.77.77,0,0,1,.59.91.79.79,0,0,1-.59.59h0a51.67,51.67,0,0,0-15.25,5.68,50.19,50.19,0,0,0-12,9.44,28.68,28.68,0,0,0-4.06,6.14,32.78,32.78,0,0,1-4,5.91c-1.55,1.86-3.22,3.73-5,5.74s-3.79,4.12-6.37,6.49h0a1,1,0,0,1-1.33,0A1.43,1.43,0,0,1,552.31,187.07Z"/><path class="cls-2" d="M591.41,379.69a7.63,7.63,0,0,1,5-2.88,12.76,12.76,0,0,1,6,.48,21.93,21.93,0,0,1,9,6.24,28.23,28.23,0,0,1,4.42,6.36,32.06,32.06,0,0,0,3.92,6.23,38.26,38.26,0,0,0,11.34,9.14,29.14,29.14,0,0,0,15.09,3.28h0a.76.76,0,0,1,.8.72.75.75,0,0,1-.41.72c-5.2,2.72-11.55,3.38-17.68,2.46a36.68,36.68,0,0,1-9-2.64,43.92,43.92,0,0,1-8.15-4.75,92.8,92.8,0,0,1-7.47-5.85,22.53,22.53,0,0,1-3.11-3.52A21.68,21.68,0,0,1,599,392c-1-2.28-1.64-4.14-2.32-5.81a12.2,12.2,0,0,0-1.62-2.68,7.68,7.68,0,0,0-3.17-2.42l-.11-.05a.92.92,0,0,1-.48-1.21A.51.51,0,0,1,591.41,379.69Z"/><path class="cls-2" d="M323.05,235.28a17,17,0,0,0-4.45-6.55c-1.6-1.61-3.3-3.09-5-4.64-.42-.4-.83-.75-1.27-1.21s-.89-.93-1.32-1.44a29.33,29.33,0,0,1-2.56-3.5,70.09,70.09,0,0,1-4.69-8.94,25.79,25.79,0,0,1-1.63-5.31,23.09,23.09,0,0,1-.33-5.47,28,28,0,0,1,2.52-9.75c2.76-5.89,6.74-10.33,10.78-14.5a.77.77,0,0,1,1.08,0,.78.78,0,0,1,.19.83c-2.08,5.42-4.32,10.75-4.87,15.84a21.58,21.58,0,0,0,.26,7.14,13.89,13.89,0,0,0,2.58,5.58,29.73,29.73,0,0,0,5.35,4.89,28,28,0,0,1,3.09,2.93,22.34,22.34,0,0,1,1.46,1.82,23.42,23.42,0,0,1,1.39,2.15,22.78,22.78,0,0,1,3.06,10.38,15.35,15.35,0,0,1-.87,5.72,9.65,9.65,0,0,1-3.36,4.55.93.93,0,0,1-1.29-.24.75.75,0,0,1-.1-.2Z"/><path class="cls-2" d="M443.44,449.37a11.7,11.7,0,0,1,1.47-1.44,15.36,15.36,0,0,1,1.55-1.17,20.08,20.08,0,0,1,3.26-1.6,22,22,0,0,1,3.36-.83,23.85,23.85,0,0,1,3.38-.17,14.89,14.89,0,0,1,3.25.59,15.43,15.43,0,0,1,3,1.44c.92.64,1.82,1.31,2.7,2s1.72,1.37,2.6,2a40.39,40.39,0,0,1,9,8.89,37.22,37.22,0,0,1,5.6,10.85.78.78,0,0,1-.52,1,.77.77,0,0,1-.71-.13h0a54.87,54.87,0,0,0-9.32-6.06,61.05,61.05,0,0,0-9.61-3.89,21.52,21.52,0,0,0-2.49-.5l-2.52-.2a8.72,8.72,0,0,1-2.37-.41,7.92,7.92,0,0,1-2.19-.94,16,16,0,0,1-2.15-1.36,21.91,21.91,0,0,1-2.23-1.67,29.92,29.92,0,0,1-2.38-2.09c-.41-.38-.84-.77-1.27-1.23s-.89-.92-1.36-1.5l0,0A1.15,1.15,0,0,1,443.44,449.37Z"/><path class="cls-2" d="M229.12,305.32a43.21,43.21,0,0,0-8.33-1.84c-1.31-.24-2.72-.23-4-.37s-2.7-.09-4.06-.1c-5.47-.05-11.1.23-17.23-.15-1.54-.12-3.06-.21-4.66-.47-.79-.1-1.57-.23-2.36-.37s-1.61-.36-2.42-.54l-1.2-.29-1.21-.39c-.82-.25-1.62-.54-2.42-.82s-1.61-.7-2.41-1.05a21.83,21.83,0,0,1-2.36-1.2,43,43,0,0,1-4.49-3,41.53,41.53,0,0,1-3.93-3.52,54.81,54.81,0,0,1-6.31-7.81,89.45,89.45,0,0,1-8.43-16.55c-2.18-5.51-4.12-10.87-6.58-15.85a53.81,53.81,0,0,0-4.08-7.15,40.51,40.51,0,0,0-5.3-6.19,30,30,0,0,0-6.67-4.75,23.39,23.39,0,0,0-7.93-2.43h0a.75.75,0,0,1-.66-.84.75.75,0,0,1,.68-.66,25,25,0,0,1,9.1,1,34.32,34.32,0,0,1,8.38,4,42.2,42.2,0,0,1,7.14,6,61.11,61.11,0,0,1,5.81,7.23c3.46,5.06,6.27,10.36,9.11,15.35a79.37,79.37,0,0,0,9,13.63,28.69,28.69,0,0,0,5.47,5,24.07,24.07,0,0,0,6.11,3.09,12.11,12.11,0,0,0,1.64.54c.56.17,1.09.36,1.67.52s1.18.28,1.76.45l.87.24.93.2c.61.15,1.23.28,1.84.44s1.29.25,1.93.41c1.26.3,2.63.56,4,.86a117.67,117.67,0,0,1,17.36,4.62c.74.25,1.49.62,2.23.94s1.47.63,2.19,1a34,34,0,0,1,4.19,2.56c.66.5,1.32,1,1.94,1.49s1.21,1.13,1.77,1.71a22.29,22.29,0,0,1,2.93,3.82.77.77,0,0,1-.85,1.18Z"/><path class="cls-2" d="M210.77,333.76c-1.24-.39-2.38-.88-3.62-1.14a32.63,32.63,0,0,0-3.6-.79,46,46,0,0,0-7.2-.45,64.37,64.37,0,0,0-14.17,2.17c-2.34.62-4.65,1.3-7,2.07s-4.61,1.59-7,2.49L161,340.75c-2.45.86-5,1.71-7.55,2.51A75.15,75.15,0,0,1,137,346.5a52.68,52.68,0,0,1-8.87-.14,55.33,55.33,0,0,1-8.72-1.69c-11.26-3.28-20.62-9.33-29.27-15.24s-16.64-12.11-25.23-16.66a64.68,64.68,0,0,0-13.27-5.52,41,41,0,0,0-13.87-1.57,32.29,32.29,0,0,0-13.3,3.84,24.35,24.35,0,0,0-9.73,9.62,21.64,21.64,0,0,0-2,13.73,18,18,0,0,0,7.4,12,.75.75,0,0,1-.77,1.29,18.65,18.65,0,0,1-6.12-5.27,22.6,22.6,0,0,1-3.61-7.33,25.54,25.54,0,0,1,.84-16.42A29.21,29.21,0,0,1,21.2,304.33a38.87,38.87,0,0,1,15.64-6.1,49.25,49.25,0,0,1,16.75.51,73.7,73.7,0,0,1,15.64,5.06c9.93,4.47,18.69,10.39,27.34,15.53a112.75,112.75,0,0,0,13.05,6.78,61.89,61.89,0,0,0,13.23,4.13,49,49,0,0,0,13,.67,104,104,0,0,0,13.82-2.17c2.4-.49,4.82-1.06,7.3-1.65s5-1.18,7.57-1.72,5.2-1.09,7.92-1.48a78.94,78.94,0,0,1,8.18-.83,64.09,64.09,0,0,1,8.31.13,50.2,50.2,0,0,1,8.26,1.4,38,38,0,0,1,7.79,3.05,29.32,29.32,0,0,1,6.58,4.87.76.76,0,0,1-.76,1.27Z"/><path class="cls-2" d="M297.29,492a28.12,28.12,0,0,0-13.56,7.9,39.44,39.44,0,0,0-8,11.9,164.74,164.74,0,0,0-9.31,30.81A142.85,142.85,0,0,1,262,560.21a55.83,55.83,0,0,1-8.91,16.62,35,35,0,0,1-15.46,10.91,27.85,27.85,0,0,1-9.24,1.56,21.18,21.18,0,0,1-9-2.08.75.75,0,0,1,.53-1.4,21.57,21.57,0,0,0,15.79-2.39,29.53,29.53,0,0,0,11.2-10.92,46.88,46.88,0,0,0,5.43-15,130.86,130.86,0,0,0,2.18-16.62c.53-5.75.65-11.75,1.53-18a45.91,45.91,0,0,1,6.52-18.38A36.18,36.18,0,0,1,277.94,491a27.34,27.34,0,0,1,9.92-2.47,19,19,0,0,1,9.63,2,.8.8,0,0,1,.33,1.08.78.78,0,0,1-.51.4Z"/><path class="cls-2" d="M232.26,470.7c-9.35,3.37-15.43,11.43-16.11,19.25A21.1,21.1,0,0,0,218,501.21a25.09,25.09,0,0,0,3.22,4.86,35,35,0,0,1,4.92,7.81,17.73,17.73,0,0,1,1.35,6.33,16.06,16.06,0,0,1-1.43,6.87,19,19,0,0,1-8.51,8.93,19.19,19.19,0,0,1-2.78,1.22,24.3,24.3,0,0,1-2.73.76,25,25,0,0,1-5.28.52,37.82,37.82,0,0,1-9.19-1.32,143.66,143.66,0,0,1-14.87-5.34,70.35,70.35,0,0,0-13.22-4.17,29.19,29.19,0,0,0-6.26-.52,23.9,23.9,0,0,0-6,1,26.56,26.56,0,0,0-10.68,6.31A25.09,25.09,0,0,0,139.94,545a42.72,42.72,0,0,0-1.55,13.59c.06,4.81.56,9.8.7,15a53.78,53.78,0,0,1-1.48,15.69,29.06,29.06,0,0,1-3.16,7.46,23.77,23.77,0,0,1-5.3,6.08,20.34,20.34,0,0,1-7,3.83,15.78,15.78,0,0,1-7.92.33.75.75,0,0,1,.25-1.48h0a13.76,13.76,0,0,0,6.87-1.06,17.75,17.75,0,0,0,5.69-4,21.1,21.1,0,0,0,4-5.64,25.61,25.61,0,0,0,2-6.59A50.58,50.58,0,0,0,133,574c-.57-4.82-1.52-9.76-2.07-14.94a50.61,50.61,0,0,1,.58-16.26,34.44,34.44,0,0,1,7.91-15.28,36.91,36.91,0,0,1,14.34-9.82,35.26,35.26,0,0,1,8.72-2,41.57,41.57,0,0,1,8.72.1,59.71,59.71,0,0,1,8.19,1.47c2.62.62,5.17,1.3,7.61,2a128.49,128.49,0,0,0,13.85,3.43,24.06,24.06,0,0,0,5.7.42,13,13,0,0,0,2.17-.31,7.63,7.63,0,0,0,.88-.28c.21-.09.43-.18.65-.3a5.66,5.66,0,0,0,1.16-.84,3.77,3.77,0,0,0,.65-.79,1.18,1.18,0,0,0,.2-.39,1.85,1.85,0,0,0-.08-1,22.87,22.87,0,0,0-2.66-5.12,35.47,35.47,0,0,1-3.91-8.32,30.32,30.32,0,0,1,.26-18.31,27.06,27.06,0,0,1,10.59-13.95,24.66,24.66,0,0,1,15.64-4.29.78.78,0,0,1,.7.83.76.76,0,0,1-.51.65Z"/><path class="cls-2" d="M194.52,384.27c-.51.91-1.09,1.79-1.66,2.71s-1.3,1.67-2,2.52a36.32,36.32,0,0,1-4.66,4.53,41.39,41.39,0,0,1-11.54,6.49,43.83,43.83,0,0,1-27.24,1c-1.14-.33-2.26-.77-3.39-1.17-.57-.19-1.1-.43-1.62-.66s-1.07-.46-1.56-.71c-2-1-3.88-2-5.66-3-3.51-2-6.59-4.09-9.47-5.51a16.42,16.42,0,0,0-8-2.2,11.41,11.41,0,0,0-3.88.75,17.17,17.17,0,0,0-3.86,2.12,33,33,0,0,0-7,7.4,70.85,70.85,0,0,0-5.68,9.59c-3.48,6.7-6,13.52-4.32,20,.78,3.34,2.53,6.88,4,10.83a30.94,30.94,0,0,1,1.72,6.36,17.59,17.59,0,0,1-.29,6.92,19.08,19.08,0,0,1-7.63,10.67,17,17,0,0,1-12.23,2.86.75.75,0,0,1-.61-.87.76.76,0,0,1,.76-.62h0a14.65,14.65,0,0,0,10.11-3.88,15.16,15.16,0,0,0,5-9.08c.38-3.28-.71-6.6-2.43-9.92s-4-6.76-5.57-11a25.6,25.6,0,0,1-1.47-6.86,30.93,30.93,0,0,1,.28-6.89A57.46,57.46,0,0,1,88.27,404a81.26,81.26,0,0,1,5.56-11.49,44.68,44.68,0,0,1,8.56-10.67,29.59,29.59,0,0,1,6.2-4.27,25.43,25.43,0,0,1,7.56-2.53,26,26,0,0,1,8-.13,36.27,36.27,0,0,1,7.3,1.81,73.9,73.9,0,0,1,11.61,5.71c1.68,1,3.29,1.92,4.81,2.74s2.94,1.5,4.42,2.15a42,42,0,0,0,19.91,2.87,49.58,49.58,0,0,0,21.22-7h0a.77.77,0,0,1,1.06.27A.76.76,0,0,1,194.52,384.27Z"/><path class="cls-2" d="M151.61,472c-4.43,8.53-7.1,17.33-11.6,26.32a67.84,67.84,0,0,1-3.8,6.66,62.33,62.33,0,0,1-16.56,16.89,63.82,63.82,0,0,1-29.44,10.87,74.91,74.91,0,0,1-15.7,0,86.36,86.36,0,0,1-15.25-3A78.91,78.91,0,0,1,45.06,524a81.52,81.52,0,0,1-12.8-8.17,91.59,91.59,0,0,1-11-10.25,89,89,0,0,1-9-11.92A55.56,55.56,0,0,1,5.65,480a30.16,30.16,0,0,1-1.3-7.76,23.14,23.14,0,0,1,1.13-7.89,19.58,19.58,0,0,1,3.92-6.95,17.48,17.48,0,0,1,3-2.64A13.32,13.32,0,0,1,16.12,453a14.11,14.11,0,0,1,3.91-.61,13.7,13.7,0,0,1,3.88.46,11.3,11.3,0,0,1,6.37,4.24.76.76,0,0,1-1.17.95v0a9.36,9.36,0,0,0-5.66-2.88,10.79,10.79,0,0,0-3.21,0,11.21,11.21,0,0,0-3.05.84,10.66,10.66,0,0,0-2.62,1.59,13,13,0,0,0-2.11,2.27,15.41,15.41,0,0,0-2.44,5.7,18.76,18.76,0,0,0-.24,6.25A25,25,0,0,0,11.43,478a49.08,49.08,0,0,0,6.93,11.39,79.79,79.79,0,0,0,9.1,10.06,83.56,83.56,0,0,0,10.62,8.29,72.61,72.61,0,0,0,11.72,6.35,67.76,67.76,0,0,0,12.51,4.09,60.05,60.05,0,0,0,12.89,1.39,61.05,61.05,0,0,0,12.74-1.45,85.09,85.09,0,0,0,23.68-8.87l2.73-1.61c.9-.55,1.74-1.19,2.63-1.76s1.72-1.24,2.57-1.88l1.26-1,1.21-1c1.67-1.34,3.13-2.87,4.68-4.37s3-3.25,4.4-5c2.9-3.51,5.74-7.36,8.86-11.12a63.19,63.19,0,0,1,10.51-10.42.77.77,0,0,1,1.14,1Z"/><path class="cls-2" d="M66.82,406.12c-3.48.36-6.36.4-9.08.46s-5.22,0-7.64,0a32.5,32.5,0,0,1-7.07-.94,28.76,28.76,0,0,0-7.29-1,50,50,0,0,0-15,2.68,51.69,51.69,0,0,0-14.36,7.65h0a.77.77,0,0,1-1.07-.16.76.76,0,0,1,0-.84,44.23,44.23,0,0,1,11.91-13.25,46.43,46.43,0,0,1,16.84-8,78.06,78.06,0,0,1,9.53-1.94,21.42,21.42,0,0,1,9.66,1.11,27,27,0,0,1,8.49,4.87,20.24,20.24,0,0,1,5.93,8.1.94.94,0,0,1-.54,1.21l-.24.06Z"/><path class="cls-2" d="M186.61,563.15a7.84,7.84,0,0,0-.29,4,12.49,12.49,0,0,0,.93,3c.8,1.61,1.8,3.3,2.82,5.59a23.06,23.06,0,0,1,1.35,4,22.58,22.58,0,0,1,.56,4.66,92.91,92.91,0,0,1-.57,9.46,44.44,44.44,0,0,1-1.85,9.26,36.17,36.17,0,0,1-4,8.5c-3.37,5.19-8.08,9.51-13.56,11.61a.77.77,0,0,1-.82-1.26h0a29.15,29.15,0,0,0,7.55-13.46,38.29,38.29,0,0,0,.68-14.56,32.24,32.24,0,0,0-2.07-7.06,28.57,28.57,0,0,1-1.83-7.52,21.82,21.82,0,0,1,1.27-10.84,12.82,12.82,0,0,1,3.62-4.82,7.65,7.65,0,0,1,5.48-1.84.92.92,0,0,1,.81,1,1.16,1.16,0,0,1,0,.18Z"/><path class="cls-2" d="M255.16,266.6a9.58,9.58,0,0,1-5.63-.5,15,15,0,0,1-4.86-3.14,23.62,23.62,0,0,1-6.43-11.64,21.76,21.76,0,0,1-.4-2.3,26.91,26.91,0,0,1-.14-4.26,29.71,29.71,0,0,0-.12-7.25,13.85,13.85,0,0,0-2.46-5.63A21.4,21.4,0,0,0,230,227c-4.18-3-9.65-4.82-15.09-6.87a.76.76,0,0,1,.24-1.48c5.8-.26,11.75-.29,18,1.54a28,28,0,0,1,9,4.58,22.92,22.92,0,0,1,3.87,3.88,26.55,26.55,0,0,1,2.9,4.74,70.56,70.56,0,0,1,3.58,9.44,29.41,29.41,0,0,1,.92,4.23c.1.67.16,1.32.2,1.95s0,1.17.07,1.75c0,2.3,0,4.55.16,6.81a17.23,17.23,0,0,0,1.95,7.68l0,.05a.94.94,0,0,1-.38,1.26Z"/><path class="cls-2" d="M337.27,498.29c.12.74.17,1.38.22,2s.06,1.21.08,1.77a27.61,27.61,0,0,1,0,3.17,21.31,21.31,0,0,1-.22,2.77,16,16,0,0,1-.42,2.52,8,8,0,0,1-.74,2.26,9,9,0,0,1-1.27,2l-1.52,2A21.93,21.93,0,0,0,332.1,519a62,62,0,0,0-3.46,9.78,54.78,54.78,0,0,0-1.63,11h0a.78.78,0,0,1-1.45.37,37.08,37.08,0,0,1-4.41-11.39,40.71,40.71,0,0,1-.69-12.63c.14-1.06.19-2.15.24-3.26s.19-2.21.32-3.33a16.48,16.48,0,0,1,.89-3.18,15.72,15.72,0,0,1,1.72-2.83,23.44,23.44,0,0,1,2.37-2.41,22.55,22.55,0,0,1,2.85-2,19.91,19.91,0,0,1,3.36-1.38,16.13,16.13,0,0,1,1.91-.38,13.35,13.35,0,0,1,2.05-.15,1.15,1.15,0,0,1,1.1,1Z"/></svg>