<svg id="Kierth_full" data-name="Kierth full" xmlns="http://www.w3.org/2000/svg" xmlns:xlink="http://www.w3.org/1999/xlink" viewBox="0 0 792 792"><defs><style>.cls-1,.cls-2,.cls-5{stroke:#231f20;}.cls-1,.cls-2,.cls-3,.cls-4,.cls-5{stroke-miterlimit:10;}.cls-1{stroke-width:2px;fill:url(#linear-gradient);}.cls-2,.cls-3,.cls-5{stroke-width:3px;}.cls-2{fill:url(#linear-gradient-2);}.cls-3{stroke:#2e2f8a;fill:url(#linear-gradient-3);}.cls-4,.cls-5{fill:none;}.cls-4{stroke:#e6e7e8;stroke-width:6px;}</style><linearGradient id="linear-gradient" x1="211.84" y1="202.01" x2="244.87" y2="234.21" gradientUnits="userSpaceOnUse"><stop offset="0" stop-color="#c4c6c8"/><stop offset="0.24" stop-color="#a1a2a4"/><stop offset="0.58" stop-color="#747476"/><stop offset="0.85" stop-color="#58585a"/><stop offset="1" stop-color="#4d4d4f"/></linearGradient><linearGradient id="linear-gradient-2" x1="98.57" y1="233.09" x2="772.78" y2="456.72" gradientUnits="userSpaceOnUse"><stop offset="0" stop-color="#ed1c24"/><stop offset="0.13" stop-color="#d91c22"/><stop offset="0.36" stop-color="#ba1b20"/><stop offset="0.59" stop-color="#a51a1e"/><stop offset="0.8" stop-color="#971a1d"/><stop offset="1" stop-color="#931a1d"/></linearGradient><linearGradient id="linear-gradient-3" x1="432.49" y1="428.77" x2="298.68" y2="458.16" gradientUnits="userSpaceOnUse"><stop offset="0" stop-color="#0789c7"/><stop offset="0.4" stop-color="#1864b0"/><stop offset="0.78" stop-color="#26489f"/><stop offset="1" stop-color="#2b3d98"/></linearGradient></defs><title>Artboard 1</title><path class="cls-1" d="M217.76,251.91l47.73-49A1.51,1.51,0,0,0,266,202c0-.87-1.24-1.05-2.1-.9a235,235,0,0,0-77.57,27.64C193.82,239.83,205.1,247.63,217.76,251.91Z"/><path class="cls-2" d="M224.38,248.82c79.79-28.58,188.19-55.83,275-60.24s171.2,20.65,228.22,89.77c24.69,29.93,28.93,88.76,28.92,117.65,0,46.61-8.24,98.55-37.31,135-27,33.85-53.73,54.71-96.51,61.37s-89.24-6.92-118.55-38.78c-16.32-17.74-27.2-42-23.43-65.82,4.6-29,31.23-51.71,60.27-55.87s55.93,7.36,76.86,27.9c-19.79-18.87-49.73-26.39-76.1-19.13-20.08,5.54-38.41,20.28-44.2,40.28-4.88,16.89-.37,35.5,8.91,50.43,17.88,28.75,52.92,44.82,86.73,43s65.66-20.15,87.12-46.34,33-59.61,36.14-93.33c3.58-38.81-4.25-79.74-27.65-110.9-29.66-39.5-80.54-58.45-129.87-60.83s-103,2.69-148.49,15.68c-42.17,12.33-163.07,45.69-204.85,51l14.75-7.53-25.61,11.53c-45.7-2-89.21,4.32-135.2-.63a89.83,89.83,0,0,1-12.11-62.1l140.46-44.47A200.62,200.62,0,0,0,224.38,248.82Z"/><path class="cls-3" d="M268.64,518.35a264.74,264.74,0,0,0,245.51,70.56c-70.23-5.55-139.65-38.75-187.6-90.36,39.52,30.3,91.69,43.45,140.91,35.93-36.23-6.44-71-25.83-96.18-52.67a209.38,209.38,0,0,0,81,4.74c-34.63-2.57-66.93-19.27-90.23-45a153.58,153.58,0,0,0,80.59,9.21c-29.32-5.13-53.67-22.77-73.1-45.32,21.69,8.69,47.23,11.84,70.53,10.17-24.29-5.74-49.74-22.19-64.86-42.06,16,6.11,32.47,4,48.56-1.8-15.11-2.12-27.75-11.3-38-22.65,3.09-.19,7-2.83,9.85-3.94,10.33-4,17.59-13.15,24.34-21.93-6.69,1.17-16.95,1.59-23.66.48s-13.36-4.94-16-11.2c12.43-2.57,23.41-11.22,32.39-20.19-16.18,5.23-34.79-.46-48.07-11.08,11.75-2.23,22.22-7.7,32.1-14.47-9.33-.21-20.47-1.46-29.79-1.67l-62.82,17q27.5,29.06,56.84,56.27C334.17,400,303,459.87,268.64,518.35Z"/><path class="cls-4" d="M169.29,253.15c-4,1.78-8.16,3.71-10.71,7.26s-2.69,9.21.88,11.73c2.3,1.61,5.38,1.5,8.13.95a32,32,0,0,0,11.72-4.91c4.43-3,8.35-8.16,7-13.33-1.26-4.72-6.68-7.38-11.55-7s-9.2,3.18-13,6.2c-3.48,2.75-7.05,6.84-5.76,11.08a7.69,7.69,0,0,0,5.1,4.78,16.29,16.29,0,0,0,7.19.32c4.09-.58,8.25-1.95,11.12-4.92s4.06-7.82,1.92-11.35-8-4.41-10.43-1.09"/><path class="cls-5" d="M171.1,251.74c2.45-3.32,8-1.28,10.15,2.25s.95,8.38-1.92,11.35-7,4.34-11.12,4.92a16.29,16.29,0,0,1-7.19-.32,7.69,7.69,0,0,1-5.1-4.78c-1.29-4.24,2.28-8.33,5.76-11.08,3.84-3,8.17-5.79,13-6.2s10.29,2.25,11.55,7c1.39,5.17-2.53,10.32-7,13.33a32,32,0,0,1-11.72,4.91c-2.75.55-5.83.66-8.13-.95-3.57-2.52-3.43-8.19-.88-11.73s6.72-5.48,10.71-7.26Z"/></svg>