<svg id="Konara_base" data-name="Konara base" xmlns="http://www.w3.org/2000/svg" xmlns:xlink="http://www.w3.org/1999/xlink" viewBox="0 0 792 792"><defs><style>.cls-1{fill:#e6e7e8;}.cls-1,.cls-2,.cls-5{stroke:#231f20;stroke-width:3px;}.cls-1,.cls-2,.cls-4,.cls-5{stroke-miterlimit:10;}.cls-2{fill:url(#linear-gradient);}.cls-3{fill:#231f20;}.cls-4,.cls-5{fill:none;}.cls-4{stroke:#e6e7e8;stroke-width:6px;}</style><linearGradient id="linear-gradient" x1="279.25" y1="467.42" x2="486.68" y2="467.42" gradientUnits="userSpaceOnUse"><stop offset="0" stop-color="#393e3a"/><stop offset="1" stop-color="#8e3228"/></linearGradient></defs><title>Artboard 1</title><path class="cls-1" d="M630.16,560.52c-18.5,7.72-54.81,6.65-73.74.06S522,544,510.24,527.81c-5.74-7.9-11.49-19.78-12.91-29.44-2.52-17.15,6.28-34.81,20.05-45.35s31.76-14.51,49.08-13.6,33.18,6.08,49.14,12.84C599.29,438,578.08,429.11,556.42,429s-43.51,8.83-57.72,25.16-20.05,40-13.71,60.69c4.07,13.32,10.69,26.82,20.57,36.63,22.44,22.26,48.23,37.39,79.54,41.65s74.48-.4,100.3-19.59c43.57-32.39,69.67-85.4,77.89-139s-.6-112.41-34.62-154.71a278.67,278.67,0,0,0-113.61-83.87l17.32-2.94c-120.2-17.59-245.2-6-360.65,31.82a12.37,12.37,0,0,0,3.17-7.36A184.52,184.52,0,0,1,240,234.26c1.65-4.19,1.84-10.91.91-15.32l-30.57,15.24,3.07-12.9c-10.07,6-20.81,13.85-30.89,19.86l5.07-18.55A640.62,640.62,0,0,1,55.6,270.12c-2.28-3.67-4.09-7-6.38-10.66a110.11,110.11,0,0,0-4,66.87c3.17-1.47,7.67-3.34,10.84-4.81.56,3.74,2.32,8.08,2.89,11.82a118.24,118.24,0,0,1,65.58,5.36,5.17,5.17,0,0,1-3-4.69,410.34,410.34,0,0,1,68.83,11.62l-1.56-8.72,37.79-4.23c84.81-9.52,165.46-51,249.9-63.38,37.23-5.46,75.25-8.86,112.42-2.94s73.74,22,98.6,50.22,36.11,69.76,23,105l6.66-4.49C719.47,480.49,688.68,536.08,630.16,560.52Z"/><g id="Layer_11" data-name="Layer 11"><path class="cls-2" d="M486.68,651.83c-45.06-13.1-85.64-39.14-120.1-71s-61.09-71-87.33-109.9c15.85-32.37,31.57-66.06,44.73-99.62-10.64-22.69-19.59-46.48-31.64-68.46A242.09,242.09,0,0,1,344.9,283c-2.09,8-5.81,18-5.8,26.29s2,16.83,7.08,23.42,13.4,10.94,21.63,9.87c-11.44,17.76-10.69,44.14-1.05,63a61.84,61.84,0,0,0,50.83,32.88c-18.62,18.69-25.87,48.34-20.36,74.14a81.12,81.12,0,0,0,49.36,57.69c-7.73,14.68-7.39,32.2-2.36,48S471.89,644.31,486.68,651.83Z"/><path class="cls-3" d="M286,471.1q4.31,3.48,8.54,7l8.58,6.92,8.25,7.25,8.41,7.08q17,14,35.05,26.53T392,549.45l9.57,5.41,9.67,5.21,9.47,5.65c3.2,1.8,6.39,3.65,9.56,5.52q-5.14-2-10.26-4.12l-10.16-4.39-9.73-5.24-9.63-5.44q-19.12-11.09-37.31-23.7T317.9,501.67l-8.46-7.12-8.32-7.28-7.69-8Q289.7,475.23,286,471.1Z"/><path class="cls-3" d="M289.67,466.26c2.44-.05,4.86-.06,7.28-.05l7.23-.17,7.19.27h7.19a207.22,207.22,0,0,0,56.65-8.92l6.84-2.22,6.76-2.45,6.94-2.06q3.44-1.12,6.93-2.21-3.12,1.88-6.3,3.69l-6.5,3.38L383,458l-6.95,2.25a209.47,209.47,0,0,1-57.47,9.05h-7.3l-7.29-.25-7.22-1.21Q293.22,467.1,289.67,466.26Z"/><path class="cls-3" d="M291.92,460.66q2.37-3.21,4.8-6.35l4.69-6.39,5-6.07,4.84-6.23a264.09,264.09,0,0,0,31.57-54.46l3-7.29,2.78-7.38,3.22-7.24q1.51-3.67,3.1-7.33-.75,3.91-1.57,7.83l-1.93,7.76L348.64,375l-3,7.38a266,266,0,0,1-31.93,55.07l-4.89,6.3-5.06,6.17-5.78,5.53Q295,458.08,291.92,460.66Z"/></g><path class="cls-4" d="M177.18,257.87c-9.28,0-17.89,7.87-18.7,17.12a29.11,29.11,0,0,0,26.42-7.78c1.49-1.5,2.87-3.31,3-5.41.19-2.71-1.82-5.23-4.31-6.3a13.49,13.49,0,0,0-8-.41,27.61,27.61,0,0,0-15,8.67c-1.88,2.13-3.49,5.15-2.27,7.71s4.24,3.17,6.92,3.14a22.3,22.3,0,0,0,19-11.47c.74-1.37,1.31-3.12.45-4.43a4.4,4.4,0,0,0-2.5-1.53,21.74,21.74,0,0,0-22.82,7.15"/><path class="cls-5" d="M177.18,257.87c-9.28,0-17.89,7.87-18.7,17.12a29.11,29.11,0,0,0,26.42-7.78c1.49-1.5,2.87-3.31,3-5.41.19-2.71-1.82-5.23-4.31-6.3a13.49,13.49,0,0,0-8-.41,27.61,27.61,0,0,0-15,8.67c-1.88,2.13-3.49,5.15-2.27,7.71s4.24,3.17,6.92,3.14a22.3,22.3,0,0,0,19-11.47c.74-1.37,1.31-3.12.45-4.43a4.4,4.4,0,0,0-2.5-1.53,21.74,21.74,0,0,0-22.82,7.15"/></svg>