<svg id="Naratir_full" data-name="Naratir full" xmlns="http://www.w3.org/2000/svg" xmlns:xlink="http://www.w3.org/1999/xlink" viewBox="0 0 792 792"><defs><style>.cls-1,.cls-2,.cls-3,.cls-5{stroke:#231f20;stroke-width:3px;}.cls-1,.cls-2,.cls-3,.cls-4,.cls-5{stroke-miterlimit:10;}.cls-1{fill:url(#New_Gradient_Swatch_1);}.cls-2{fill:url(#linear-gradient);}.cls-3{fill:#9fcdae;}.cls-4,.cls-5{fill:none;}.cls-4{stroke:#e6e7e8;stroke-width:6px;}</style><linearGradient id="New_Gradient_Swatch_1" x1="47.46" y1="388.88" x2="758.1" y2="388.88" gradientUnits="userSpaceOnUse"><stop offset="0" stop-color="#ed1c24"/><stop offset="0.13" stop-color="#d91c22"/><stop offset="0.36" stop-color="#ba1b20"/><stop offset="0.59" stop-color="#a51a1e"/><stop offset="0.8" stop-color="#971a1d"/><stop offset="1" stop-color="#931a1d"/></linearGradient><linearGradient id="linear-gradient" x1="302.98" y1="477.36" x2="467.21" y2="478.47" gradientUnits="userSpaceOnUse"><stop offset="0" stop-color="#2f9d48"/><stop offset="0.14" stop-color="#4faa65"/><stop offset="0.42" stop-color="#8fc49d"/><stop offset="0.63" stop-color="#b6d4c0"/><stop offset="0.74" stop-color="#c5dacd"/></linearGradient></defs><title>Artboard 1</title><path class="cls-1" d="M617.75,204.06c-28.5-8.45-133.21-20.78-198.53-9.52-67.4,11.62-117.33,21-161.47,38.85-.83.46-6.06,3.51-6.9,3.94,1.17-2.77,5.61-7.47,6.78-10.24-13.36,9.59-26.44,12.08-42.67,14.74a16.67,16.67,0,0,0-11.51-4.05l7.58-8.31c-4.14,1.77-8.41,3.57-12.91,3.69s-9.35-1.81-11.4-5.82a8.71,8.71,0,0,1,7.64-1.88c-11.82-3.53-26.67-4-36.13,3.88a5.79,5.79,0,0,1,2.52-6.88A532,532,0,0,1,48.47,270.58c-2.77,23.77-.09,45.35,11.34,63.41,17.56,7.23,37.47,3.24,56.12-.3s39.12-6.25,55.69,3l-2.16-6.59c6.61-2.05,14,5.47,11.78,12a16.74,16.74,0,0,0,10.19-11.77l10.94,1.46c7.12,1,16.11,1,20.75-4.48l-8-.56,3.1-2c10.41-6.69,22.6-2.79,34.94-1.94l-.6-5.88c50.23-16.82,113.77-32.36,150.24-37.82s100.78-14.24,151-8.42S654.52,296.89,686.56,336A147.91,147.91,0,0,1,684.9,525.5c-24.52,28.87-61.29,47.9-99.17,47.76-23.14-.09-46.86-7.64-63.37-23.87s-24.51-41.75-16.87-63.6c7.54-21.59,22.84-36,51.8-39.59s47.47,2.2,66.24,15.45c-24.67-26.1-62.32-33.09-93.94-20.47s-47.69,41.1-41.53,74.58c5.15,28,26.73,51.37,52.85,62.67S597,590,624.65,583.29c68.12-16.42,111.07-66.89,127.25-135.08s1-160.45-48.49-201.68C686.41,231.45,646.25,212.51,617.75,204.06Z"/><g id="Layer_19" data-name="Layer 19"><path class="cls-2" d="M292.06,532.63a1878.62,1878.62,0,0,0,159,149.7c.34-9.86-3.69-19.47-9.44-27.48s-13.19-14.64-20.55-21.2L300.17,525.91l152.65,97.44c-2-11.5-8.75-21.76-17.13-29.88s-18.39-14.35-28.37-20.4q-54.4-33-111.3-61.63c49.12,17.7,97.42,37.29,144.56,59.75-13.38-22.48-36-38.23-60.29-48s-53.26-16.23-79.05-20.6c42.14,2.36,88.16,9.56,128.81,20.9a70.89,70.89,0,0,0-33.31-30.72c-27-11.94-58.17-5.94-87.37-10.05,32.3-2.11,65-5.43,97.14-9.34-10.29-10.81-25.45-15.93-40.34-17s-29.77,1.64-44.46,4.29l.78-3.15a548.37,548.37,0,0,0,72.12-6.79c-5.44-9.35-16.32-14.48-27.07-15.68s-31.41.07-42,2.22c16.93-3.89,43.63-6.49,60.07-12.09-5.4-7-14.72-10-23.54-9.87s-17.36,2.93-25.73,5.72c13.86-3.39,29.49-9.56,42.86-14.56a51.43,51.43,0,0,0-35-4.42c13.85-2.87,25.39-5.12,39.15-8.4a2.54,2.54,0,0,0,1.21-.52,1.75,1.75,0,0,0,0-2.27,4.93,4.93,0,0,0-2.06-1.33,66.48,66.48,0,0,0-33.57-4.64c14.84-1,29.83-3.56,44.48-6.11a28,28,0,0,0-17.95-10.64c-7.05-1.05-19.49-1.25-25.28,2.92,12.32-6.32,29.07-10,41.92-15.17-10.08-6.46-28.59-7.17-39.28-1.79,11.28-6.13,26.12-11.69,38.31-15.71a33.55,33.55,0,0,0-41.44-2.58c10.41-4.66,21.77-11.75,32.18-16.42a53.39,53.39,0,0,0-37.8,1.77c10.4-5.57,19.84-10.63,31-14.55a37.4,37.4,0,0,0-35-.84c10.6-5.08,19.87-11.37,30.48-16.45a38.84,38.84,0,0,0-39,.86l-3.29,1.27,39.18-17.64a138.31,138.31,0,0,0-48.51,8.69l25.41,43.79,1.69,47.3-12.39,36.6L303.78,471l-15.2,36.6Z"/><path class="cls-3" d="M295.35,513.41c4.81-6.47,6.61-10.95,11.42-17.42-2.94,1.17-5.74-2.84-4.84-5.88s3.8-4.93,6.43-6.69,5.4-4,5.8-7.11l-5.71-1.58A75.8,75.8,0,0,1,326.27,454l-5.88-1.08a141,141,0,0,1,20.05-24.08l-8.36-.19,17.37-22.79c-1.62,2.53-6.08.49-6.42-2.49s1.82-5.62,4-7.66,4.7-4.1,5.4-7l-5.67-.1,9.62-25.13-5.09-.06a44.26,44.26,0,0,0,5.27-24.31L351,341.69l0-24.06a7,7,0,0,1-5.43,3.06l-7.35-27-4.74,4.21-5.69-20.43c-7.55,0-13.52,4.18-18.12,10.17a74.41,74.41,0,0,1,27.92,33.86c8,20.12,5.89,43.13-1.25,63.58s-13,42.05-26.47,64.22-17.5,32.05-24.39,42.72c-6.58,10.17-13.52,18.74-14.4,27.26-.82,7.84,3.89,13.1,11.52,15.07s16.9-3.26,17.51-11.11c.27-3.51-1.3-7.25-4.36-9s-7.49-.88-9.24,2.17c-1.59,2.78-2.25,4.56-1,7.5"/></g><path class="cls-4" d="M161.75,258.36l0-2.31a6.47,6.47,0,0,0-5.79.83,19.09,19.09,0,0,0-4.3,4.26,21,21,0,0,0-3.94,6.17c-.8,2.32-.67,5.12,1,7,2.2,2.48,6.1,2.33,9.32,1.53a36.86,36.86,0,0,0,19.31-12c2.73-3.25,4.85-8.16,2.25-11.5-2.29-2.94-6.81-2.71-10.35-1.59a32.36,32.36,0,0,0-15.2,10.37c-2.25,2.78-4.08,6.52-2.72,9.82,1.58,3.82,6.55,4.9,10.66,4.42a25.75,25.75,0,0,0,17.93-10.75c1.48-2.12,2.66-4.67,2.27-7.23-.72-4.73-6.64-7.14-11.27-5.92s-8.17,4.86-11.45,8.34"/><path class="cls-5" d="M161.75,258.36l0-2.31a6.47,6.47,0,0,0-5.79.83,19.09,19.09,0,0,0-4.3,4.26,21,21,0,0,0-3.94,6.17c-.8,2.32-.67,5.12,1,7,2.2,2.48,6.1,2.33,9.32,1.53a36.86,36.86,0,0,0,19.31-12c2.73-3.25,4.85-8.16,2.25-11.5-2.29-2.94-6.81-2.71-10.35-1.59a32.36,32.36,0,0,0-15.2,10.37c-2.25,2.78-4.08,6.52-2.72,9.82,1.58,3.82,6.55,4.9,10.66,4.42a25.75,25.75,0,0,0,17.93-10.75c1.48-2.12,2.66-4.67,2.27-7.23-.72-4.73-6.64-7.14-11.27-5.92s-8.17,4.86-11.45,8.34"/></svg>