<svg id="Natar_base" data-name="Natar base" xmlns="http://www.w3.org/2000/svg" xmlns:xlink="http://www.w3.org/1999/xlink" viewBox="0 0 792 792"><defs><style>.cls-1{fill:#e6e7e8;}.cls-1,.cls-2,.cls-4,.cls-5,.cls-6{stroke:#231f20;stroke-width:3px;}.cls-1,.cls-2,.cls-3,.cls-4,.cls-6{stroke-miterlimit:10;}.cls-2{fill:url(#linear-gradient);}.cls-3,.cls-4,.cls-5{fill:none;}.cls-3{stroke:#e6e7e8;stroke-width:6px;}.cls-5{stroke-linejoin:bevel;}.cls-6{fill:url(#linear-gradient-2);}</style><linearGradient id="linear-gradient" x1="224.4" y1="202.74" x2="274.73" y2="362.99" gradientUnits="userSpaceOnUse"><stop offset="0" stop-color="#939598"/><stop offset="1" stop-color="#646565"/></linearGradient><linearGradient id="linear-gradient-2" x1="269.41" y1="436.54" x2="502.53" y2="436.54" gradientUnits="userSpaceOnUse"><stop offset="0" stop-color="#f5991d"/><stop offset="0.4" stop-color="#e49e1d"/><stop offset="1" stop-color="#c4a71d"/></linearGradient></defs><title>Artboard 1</title><path class="cls-1" d="M197.13,224.08c-44.69,16.68-97.27,32.55-154,48a96.8,96.8,0,0,0,9.84,47c49,4,98.5,1,146.85-7.78,0,0,174.2-37.85,207.29-48.13s76.63-20.51,116-19.74A211.24,211.24,0,0,1,657.69,296c33.82,30,57.72,71.9,62.57,116.83s-10.44,92.4-43.19,123.55-82.93,44-125.58,29C533,558.91,515.7,547,506.58,529.63c-14.18-27-3.28-67.52,23-79.5,30.16-13.77,56-6,82.89,13.54-14.95-21-42.33-32.43-67.78-28.26s-47.75,23.72-55.21,48.41c-8.85,29.29,3.36,62.48,26.1,83s54.32,29.22,84.92,28.73c53.34-.85,105.48-29.48,134.83-74,35.78-54.33,36-126.86,12.05-187.33-15.63-39.4-41.2-75.3-75.49-100.21-56.18-40.81-138.11-50.66-199.17-45.39s-179.32,34.68-251.3,56.87c-12.06.64-22.33-9.43-24.25-21.34"/><path class="cls-2" d="M194.65,337c5.48,7.37,13.61,12.45,22.27,15.52a106.11,106.11,0,0,0,27,6c14.9,1.16,30.92-.21,43.3-8.58,8.16-5.51,13.87-14,18.19-22.84,9.88-20.2,13.4-43.63,8.86-65.66S297,219,278.55,206.11c-6.68-4.67-14.2-8.41-22.27-9.49-9.51-1.27-19.17,1.21-28,5a92.81,92.81,0,0,0-31.17,22.43c1.92,11.91,12.19,22,24.25,21.34,4.59-11.91,18.36-18.7,31.06-17.55s24.07,9.5,30.86,20.3,9.4,23.8,9.6,36.55a82.55,82.55,0,0,1-4.85,30.39A56.72,56.72,0,0,1,270.25,340c-9,7-20.46,10.67-31.89,11.2s-22.88-1.94-33.49-6.21A39.47,39.47,0,0,1,194.65,337Z"/><path class="cls-3" d="M170.21,262.69a17.4,17.4,0,0,0,15-7.79,8.75,8.75,0,0,0,1.56-4.14,4.51,4.51,0,0,0-1.66-3.95c-2.08-1.51-5-.41-7.23.86a60.24,60.24,0,0,0-11.57,8.62c-1.61,1.53-3.25,3.48-2.94,5.68a4.73,4.73,0,0,0,2.74,3.44,9.43,9.43,0,0,0,4.47.74,19.11,19.11,0,0,0,15.57-9.53c1.26-2.23,2-5.07.77-7.3a5.86,5.86,0,0,0-4.19-2.71,11.18,11.18,0,0,0-5.09.52,20.83,20.83,0,0,0-12.27,10.38c-1.15,2.29-1.84,5.16-.47,7.34,1.18,1.89,3.56,2.67,5.79,2.82a15.66,15.66,0,0,0,13.89-7c2.14-3.3,4.3-9.71-.2-12-3.41-1.71-8.51.66-11.25,2.66S162.38,262.37,170.21,262.69Z"/><path class="cls-4" d="M170.21,262.69a17.4,17.4,0,0,0,15-7.79,8.75,8.75,0,0,0,1.56-4.14,4.51,4.51,0,0,0-1.66-3.95c-2.08-1.51-5-.41-7.23.86a60.24,60.24,0,0,0-11.57,8.62c-1.61,1.53-3.25,3.48-2.94,5.68a4.73,4.73,0,0,0,2.74,3.44,9.43,9.43,0,0,0,4.47.74,19.11,19.11,0,0,0,15.57-9.53c1.26-2.23,2-5.07.77-7.3a5.86,5.86,0,0,0-4.19-2.71,11.18,11.18,0,0,0-5.09.52,20.83,20.83,0,0,0-12.27,10.38c-1.15,2.29-1.84,5.16-.47,7.34,1.18,1.89,3.56,2.67,5.79,2.82a15.66,15.66,0,0,0,13.89-7c2.14-3.3,4.3-9.71-.2-12-3.41-1.71-8.51.66-11.25,2.66S162.38,262.37,170.21,262.69Z"/><g id="Layer_23" data-name="Layer 23"><path class="cls-4" d="M48.5,308.82a152.24,152.24,0,0,0,46.87-11.69c-8.67,8.4-21.55,16.56-32.23,22.18"/><path class="cls-5" d="M54.4,309.08a31.45,31.45,0,0,1,7,9.83c-.07.29.48-.29.35-.56a69.55,69.55,0,0,1,4.49-10.86l5.21,7.28a52.38,52.38,0,0,0,2.76-8.9,9.26,9.26,0,0,0,6.2,3.4"/></g><path class="cls-6" d="M390.19,252.17l1.48,22.94-4.85,4.67a30.36,30.36,0,0,0,22.47,13.15L392.85,304a12.86,12.86,0,0,0,8.3,5.38,17.37,17.37,0,0,0-7.23,13,7.93,7.93,0,0,1,1,15.82,16.81,16.81,0,0,0,9.8,7.89l-13.22,3.49,27.9,30.5a12.41,12.41,0,0,1-9.35,2.82l13.27,11.66a26.58,26.58,0,0,1-25.08,7.08l24.16,21.72-7.78-1.95,15.44,11.84a90,90,0,0,1-32.92-4.75l26.23,24.07-7.62-.9,28.52,18.43-35.29.76,8.48,8.32a92.77,92.77,0,0,1-29.08-12.43,204.64,204.64,0,0,0,60.29,55,15,15,0,0,1-13.49-.69l13.62,12.47-15.65-3.18,16.2,11.46a49.88,49.88,0,0,1-29.66-9.38,152.05,152.05,0,0,0,45.62,47.48,81.46,81.46,0,0,1-32-2.8,530.3,530.3,0,0,0,69.18,43.83C414.68,620,329.9,581,269.41,517.26q46.71-86.65,87.16-176.5c3-6.64,6-13.53,6-20.8,0-10.13-5.78-19.32-12.19-27.17s-13.75-15.18-17.89-24.42C351.39,257.76,369.16,257.39,390.19,252.17Z"/></svg>