<svg id="natar_s_legs" data-name="natar&apos;s legs" xmlns="http://www.w3.org/2000/svg" viewBox="0 0 792 792"><defs><style>.cls-1{fill:#e6e7e8;}.cls-2{fill:#231f20;}</style></defs><title>Artboard 1</title><path class="cls-1" d="M295.53,487.2a98.3,98.3,0,0,1-3.69,12.63c-1.45,4.07-3.08,8-4.83,11.89s-3.6,7.67-5.59,11.39A124,124,0,0,1,275.05,534l1.05-8.1c2.88,8.58,4.76,17.61,7.76,26.29s6.34,17.27,9.71,25.89l2.57,6.45,2.65,6.44,2.68,6.43,2.72,6.43,11.13,25.71a.91.91,0,0,1-.47,1.19.91.91,0,0,1-1.1-.31c-5.39-7.67-10.65-15.43-15.69-23.34-2.52-4-5-7.93-7.48-11.95l-3.6-6.06-3.55-6.11c-4.71-8.18-9-16.59-13.21-25.1s-8.89-16.92-11.91-26l-1.43-4.3,2.48-3.8c2.29-3.52,4.77-6.91,7.41-10.2s5.34-6.53,8.19-9.68,5.82-6.23,9-9.18a96,96,0,0,1,10.1-8.44,1,1,0,0,1,1.51,1Z"/><path class="cls-1" d="M232.14,478c-1.34,1.53-2.7,3-4.08,4.43s-2.75,2.86-4.15,4.25-2.78,2.79-4.18,4.16-2.78,2.75-4.2,4.08q-8.42,8.1-16.87,15.89c-5.65,5.21-11.24,10.42-17,15.38s-11.8,9.72-17.7,14.64l2.47-6.91c.47,10.77,1.39,21.49,2.25,32.22l2.62,32.2c.92,10.73,1.74,21.48,2.71,32.21l2.83,32.24h0a.9.9,0,0,1-.82,1,.91.91,0,0,1-1-.69c-1.25-5.25-2.51-10.51-3.71-15.78l-3.49-15.83c-2.21-10.58-4.42-21.17-6.42-31.79l-3-15.93c-1-5.31-1.87-10.64-2.79-16-1.83-10.65-3.52-21.32-5.59-31.94l-.67-3.45,3.15-3.46a208,208,0,0,1,16.82-16.91,178.58,178.58,0,0,1,19-14.4,201,201,0,0,1,20.62-12.05c1.78-.89,3.59-1.74,5.39-2.6s3.65-1.63,5.5-2.41,3.72-1.49,5.6-2.19,3.81-1.32,5.76-1.9a.93.93,0,0,1,1.16.63,1,1,0,0,1-.19.88Z"/><path class="cls-1" d="M214.73,351.1c-4.92.78-9.79,1.18-14.65,1.5s-9.7.44-14.53.48-9.64-.05-14.45-.2-9.59-.43-14.37-.79l-4.6-.34-2.51-4.84c-1.6-3.09-3.11-6.22-4.57-9.38s-2.69-6.41-3.94-9.65-2.3-6.57-3.4-9.86l-3.13-9.94c-1-3.33-2-6.64-3.07-9.94l-3-9.93-2.85-10-2.67-10c-3.35-13.39-6.32-26.85-8.8-40.39s-4.57-27.11-6.27-40.72a.9.9,0,0,1,1.77-.35q5.5,19.78,11.57,39.32c4.1,13,8.37,25.92,13.06,38.66l3.5,9.55,3.63,9.48,3.8,9.41c1.32,3.11,2.66,6.22,4.05,9.3l4.32,9.16c1.49,3,3,6.05,4.39,9.11s2.88,6.08,4.19,9.17,2.69,6.16,3.92,9.29L159,334c4.72.84,9.42,1.78,14.12,2.78s9.38,2.13,14,3.38,9.33,2.55,14,4.05,9.26,3.1,13.84,5.07a.94.94,0,0,1-.23,1.79Z"/><path class="cls-1" d="M192.79,412.92c-6.78,2.18-13.54,3.92-20.28,5.61s-13.46,3.22-20.16,4.71-13.4,2.89-20.09,4.29-13.38,2.64-20.11,3.71l-6.58,1.05-3.08-5.38c-3.41-5.94-6.56-12-9.74-18.12l-4.8-9.1-4.91-9-9.94-18-5-9-4.89-9-9.79-18.09-9.68-18.15Q34.08,300.2,24.63,281.9a.9.9,0,0,1,1.54-.93Q38,297.85,49.56,314.85l11.58,17,11.47,17.07,5.74,8.54L84,366.05l11.32,17.16,5.72,8.55,5.83,8.48c3.91,5.64,7.84,11.26,11.52,17L108.74,413a202.13,202.13,0,0,1,20.78-3.24c7-.7,14-1.2,21-1.39s14.06-.1,21.09.32a164.32,164.32,0,0,1,21.08,2.48.93.93,0,0,1,.73,1.09A.92.92,0,0,1,192.79,412.92Z"/><path class="cls-1" d="M468.21,402.54a96.88,96.88,0,0,1,12.94-2.41c4.28-.55,8.54-.88,12.78-1.07s8.48-.25,12.69-.16,8.41.3,12.58.77l4.51.51,2.41,3.84c5.09,8.12,8.56,17.13,12.49,25.75s7.63,17.33,10.94,26.16l2.46,6.63,2.38,6.64c1.54,4.44,3,8.91,4.46,13.37,2.89,8.93,5.53,17.92,8,27a.91.91,0,0,1-1.68.65l-12.74-24.95L549.22,479,546,472.88l-3.27-6.14-3.34-6.09c-4.5-8.09-9-16.16-13.79-24S515,421.64,510.21,414l6.92,4.35a125.33,125.33,0,0,1-12.44-2q-6.19-1.24-12.35-2.93c-4.09-1.12-8.18-2.38-12.24-3.85A98.87,98.87,0,0,1,468,404.33a1,1,0,0,1-.4-1.31A1,1,0,0,1,468.21,402.54Z"/><path class="cls-1" d="M502.9,351.06c1.69-1.13,3.4-2.2,5.13-3.24s3.49-2,5.26-2.92,3.56-1.82,5.35-2.71,3.61-1.69,5.44-2.5a200,200,0,0,1,22.42-8.23,178.13,178.13,0,0,1,23.2-5.5,207.55,207.55,0,0,1,23.75-2.2l4.67-.23,2.23,2.71c6.88,8.36,14,16.45,21.08,24.64,3.52,4.1,7.07,8.17,10.54,12.31l10.37,12.46c6.92,8.3,13.68,16.74,20.43,25.18l10,12.77c3.31,4.28,6.56,8.6,9.81,12.91a.9.9,0,0,1-1.35,1.18h0L658.15,405c-7.66-7.58-15.43-15.05-23.12-22.59l-23.17-22.51c-7.72-7.5-15.4-15-23.42-22.25l6.9,2.49c-7.54,1.42-15,3.05-22.55,4.33s-15.1,2.32-22.71,3.37-15.26,2-23,2.9c-1.93.24-3.87.43-5.82.64s-3.9.41-5.87.57-3.93.36-5.92.5-4,.27-6,.33h0a.93.93,0,0,1-1-.91A.94.94,0,0,1,502.9,351.06Z"/><path class="cls-1" d="M412.94,254.42c1.39-4.78,3.11-9.36,4.89-13.89s3.74-9,5.76-13.35,4.16-8.7,6.34-13,4.48-8.49,6.84-12.66l-.52,8.79c-1.64-2.94-3.19-5.92-4.68-8.93s-3-6-4.41-9.07-2.84-6.11-4.23-9.18L418.61,174c-1.48-3-3-6-4.59-9L409.18,156l-5-8.84L399,138.41c-6.84-11.73-14.08-23.24-21.5-34.68s-15.13-22.73-23-34a.9.9,0,0,1,1.4-1.13c9.42,10,18.6,20.2,27.42,30.75s17.35,21.38,25.55,32.49l6,8.43,5.87,8.55,5.76,8.64c1.87,2.9,3.76,5.81,5.71,8.68l5.67,8.74c1.84,3,3.69,5.9,5.44,8.9s3.38,6.08,4.94,9.19,3,6.29,4.32,9.48l2.14,5-2.66,3.78c-2.77,3.91-5.63,7.76-8.54,11.58s-5.92,7.58-9,11.27-6.29,7.34-9.62,10.9-6.75,7.05-10.49,10.35a.93.93,0,0,1-1.32-.09A.94.94,0,0,1,412.94,254.42Z"/><path class="cls-1" d="M474.79,276.59a163.51,163.51,0,0,1,11.5-17.84c4.15-5.69,8.57-11.17,13.18-16.47s9.45-10.37,14.44-15.31a198.14,198.14,0,0,1,15.72-14l-2.81,10.2c-2.11-6.51-4-13.13-5.81-19.73l-2.83-9.9-2.95-9.85-6-19.65-3-9.83-2.93-9.86-5.86-19.72-5.76-19.75q-5.75-19.76-11.24-39.6a.9.9,0,0,1,1.7-.6q8.09,18.94,15.94,38l7.83,19,7.73,19.06,3.86,9.53,3.78,9.57L528.79,179l3.84,9.54,4,9.49c2.67,6.33,5.36,12.64,7.78,19l2.18,5.8-5,4.4c-5.12,4.51-10.35,8.87-15.67,13.16s-10.67,8.53-16.09,12.76-10.89,8.41-16.47,12.55-11.23,8.23-17.23,12.07a.91.91,0,0,1-1.28-.28A.93.93,0,0,1,474.79,276.59Z"/><path class="cls-2" d="M295.23,487c-1.45,4.06-3.17,7.95-4.93,11.82s-3.67,7.63-5.63,11.36-4,7.42-6.1,11.05S274.3,528.48,272,532l.64-5c2.89,8.68,5.34,17.58,8.57,26.24S288,570.48,291.59,579l2.77,6.39,2.84,6.36,2.86,6.35,2.91,6.34c3.92,8.45,8,16.82,12,25.24a.55.55,0,0,1-.95.54c-5.09-7.84-10-15.79-14.79-23.82-2.39-4-4.77-8-7.09-12.11l-3.42-6.13L285.4,582c-4.45-8.26-8.56-16.71-12.53-25.25s-8.09-17.08-11.1-26.07l-.88-2.63,1.52-2.33q3.43-5.26,7.21-10.32t7.68-10c2.64-3.29,5.35-6.53,8.16-9.71s5.71-6.29,8.85-9.25a.56.56,0,0,1,.8,0A.57.57,0,0,1,295.23,487Z"/><path class="cls-2" d="M232,477.73c-1.45,1.35-2.92,2.65-4.41,3.93s-2.95,2.58-4.43,3.85-3,2.57-4.43,3.83l-4.43,3.8-17.6,15.14-17.43,15.19c-5.83,5-11.75,10-17.53,15.07l1.51-4.22c.78,10.75,1.84,21.46,2.9,32.17l3.24,32.14c1.13,10.71,2.19,21.43,3.39,32.13l1.84,16.06,1.87,16.06a.54.54,0,0,1-.48.61.55.55,0,0,1-.6-.43c-1.11-5.28-2.22-10.56-3.27-15.85L169,631.31c-2-10.6-3.95-21.22-5.73-31.86s-3.56-21.28-5.18-32-3.18-21.34-4.93-32l-.37-2.25,1.88-2c5.45-5.7,11-11.28,17-16.47a231.7,231.7,0,0,1,18.62-14.6q9.66-6.84,19.9-12.79l5.16-2.89c1.74-.93,3.48-1.85,5.24-2.74,3.52-1.78,7.09-3.47,10.74-5a.56.56,0,0,1,.6.92Z"/><path class="cls-2" d="M214.78,350.75c-4.86.26-9.68.23-14.5.22s-9.62-.19-14.42-.4c-9.59-.41-19.15-1.1-28.69-2l-2.92-.27-1.43-2.9c-1.52-3.09-3-6.22-4.43-9.36s-2.69-6.36-4-9.56-2.43-6.46-3.59-9.71L137.44,307c-4.41-13.06-8.6-26.18-12.25-39.43s-6.84-26.62-9.6-40.06-5.27-26.91-7.32-40.45a.55.55,0,0,1,.46-.63.56.56,0,0,1,.62.42c3.31,13.27,6.73,26.49,10.52,39.6s7.82,26.12,12.25,39,9,25.65,14.32,38.14l4.08,9.32q2.14,4.61,4.2,9.25c1.41,3.08,2.82,6.16,4.15,9.27s2.74,6.18,4,9.31l-4.35-3.17c9.46,1.49,18.89,3.17,28.29,5.15,4.7,1,9.39,2,14.07,3.17s9.35,2.34,14,3.79a.56.56,0,0,1-.13,1.09Z"/><path class="cls-2" d="M192.77,412.57c-6.83,1.48-13.64,2.76-20.44,4L152,420.34l-20.26,3.73c-6.75,1.24-13.48,2.48-20.25,3.6l-4,.66-1.94-3.3c-3.47-5.9-6.77-11.91-10.09-17.9s-6.67-12-10.07-17.92c-6.79-11.91-13.66-23.76-20.37-35.71L55,335.61l-10-17.95c-6.69-12-13.39-23.92-20-35.94a.55.55,0,0,1,.94-.57c7.59,11.42,15.06,22.91,22.54,34.39l11.23,17.22L70.79,350c7.46,11.5,14.76,23.09,22.15,34.63q5.53,8.65,11.19,17.24c3.76,5.73,7.55,11.44,11.17,17.26l-5.89-2.64c6.83-1.4,13.72-2.48,20.64-3.35s13.87-1.5,20.83-1.95,13.93-.67,20.9-.66,14,.26,20.93.91a.56.56,0,0,1,.5.61A.55.55,0,0,1,192.77,412.57Z"/><path class="cls-2" d="M468.17,402.89c4.29-.54,8.53-.76,12.78-.94s8.46-.17,12.67-.11,8.43.21,12.62.45,8.39.54,12.56,1l2.76.31L523,406c5,8,9,16.68,13.05,25.16s8,17,11.5,25.73l2.62,6.52,2.56,6.55c1.66,4.37,3.25,8.77,4.83,13.18,3.13,8.81,6.15,17.65,8.95,26.55a.57.57,0,0,1-.36.7.55.55,0,0,1-.66-.3c-3.92-8.47-7.79-16.95-11.8-25.35l-3-6.28-3.08-6.25-3.1-6.24-3.16-6.2c-4.28-8.23-8.59-16.42-13.24-24.39S518.16,419.79,513.3,412l4.23,2.66c-4.17-.46-8.33-1.06-12.47-1.77s-8.28-1.46-12.41-2.33-8.24-1.82-12.34-2.89-8.2-2.26-12.26-3.72a.57.57,0,0,1-.34-.72A.56.56,0,0,1,468.17,402.89Z"/><path class="cls-2" d="M503,351.39c3.5-1.85,7.07-3.53,10.69-5.11,1.81-.79,3.63-1.55,5.45-2.3l5.51-2.14c7.39-2.75,14.92-5.15,22.53-7.2a231.1,231.1,0,0,1,23.11-5.08c7.79-1.27,15.65-2,23.52-2.62l2.71-.2,1.5,1.72c7.11,8.13,14.36,16.12,21.54,24.17s14.3,16.16,21.35,24.33,14,16.42,20.93,24.7l10.31,12.47c3.42,4.18,6.78,8.4,10.15,12.61a.54.54,0,0,1-.09.77.55.55,0,0,1-.74-.05l-11.19-11.67-11.21-11.63c-7.5-7.74-15.09-15.38-22.63-23.07l-22.73-23c-7.59-7.63-15.17-15.27-23-22.71l4.21,1.52c-7.62,1.22-15.19,2.63-22.78,3.93l-22.81,3.77-22.88,3.94-5.75,1q-2.88.53-5.77,1c-1.92.34-3.85.68-5.79,1s-3.88.64-5.84.9h0a.55.55,0,0,1-.63-.47A.56.56,0,0,1,503,351.39Z"/><path class="cls-2" d="M413.24,254.61c1.83-4.5,3.92-8.85,6-13.21s4.28-8.62,6.51-12.87c4.46-8.5,9.16-16.85,14-25.1l-.32,5.38q-2.37-4.5-4.61-9.05c-1.55-3-3-6-4.5-9.09s-3-6.07-4.47-9.13l-4.59-9.08c-6.26-12-13.16-23.75-20.3-35.32s-14.6-23-22.28-34.27S363,80.55,354.84,69.55a.55.55,0,0,1,.86-.69q13.69,15.3,26.53,31.39T407,133.15c7.9,11.25,15.35,22.83,22.62,34.55l5.4,8.83q2.64,4.44,5.21,8.95c1.63,3,3.28,6.08,4.83,9.16s3,6.23,4.4,9.38l1.33,2.94-1.65,2.43q-8.07,11.88-16.73,23.4c-2.89,3.83-5.83,7.63-8.86,11.37s-6.11,7.46-9.4,11a.56.56,0,0,1-.79,0A.54.54,0,0,1,413.24,254.61Z"/><path class="cls-2" d="M475.05,276.83c3.93-5.79,8.19-11.33,12.61-16.72s9-10.62,13.82-15.71,9.71-10,14.76-14.82,10.29-9.41,15.72-13.79L530.25,222c-2.19-6.49-4.18-13-6.21-19.59s-4.07-13.09-6.18-19.61c-4.19-13-8.48-26.05-12.6-39.12L499,124.1l-6.13-19.62c-4.09-13.08-8.2-26.16-12.18-39.28a.54.54,0,0,1,.36-.68.56.56,0,0,1,.68.32c5.07,12.74,10,25.51,15,38.29l7.45,19.16,7.37,19.19c4.94,12.78,9.71,25.62,14.57,38.43q3.65,9.61,7.42,19.18c2.5,6.37,5,12.74,7.38,19.18l1.31,3.59-3,2.63c-5.17,4.5-10.42,8.91-15.67,13.32L507.8,251.07,492,264.38c-5.31,4.43-10.63,8.87-16.12,13.2a.55.55,0,0,1-.78-.1A.56.56,0,0,1,475.05,276.83Z"/></svg>